<svg xmlns="http://www.w3.org/2000/svg" viewBox="0 0 790.98 370.06"><polygon points="41.64 22.47 295.87 51.61 291.13 235.25 34.21 247.77 41.64 22.47" style="fill:#dddfe2;fill-rule:evenodd"/><circle cx="234.95" cy="118.67" r="22.91" style="fill:#fff"/><polygon points="284.3 124.13 274.2 120.16 257.36 117.53 231.44 130.03 237.7 138.37 234.7 145.51 233.15 153 217.66 154.04 213.96 181.17 205.02 177.6 194.53 169.4 183.85 174.99 172.94 173.34 163.82 191.54 140.92 203.33 96.4 195.17 81.64 171.13 81.64 163.36 90.16 158.68 85.3 143.24 69.55 140.6 64.76 136.31 59.49 119.79 42.64 116.7 37.79 245.45 280.08 230.92 284.3 124.13" style="fill:#86b264;fill-rule:evenodd"/><polygon points="231.44 130.03 254.3 143.48 284.3 124.13 274.68 155.6 254.3 143.48 234.7 145.51 231.44 130.03" style="fill:#709d52;fill-rule:evenodd"/><polygon points="274.68 155.6 241.4 165.3 232.34 191.34 248.11 221.28 282.64 219.43 289.02 186.59 274.68 155.6" style="fill:#709d52;fill-rule:evenodd"/><polygon points="205.02 177.6 178.34 190.54 161.04 201.55 156.75 218.13 172.37 226.71 207.83 225.3 209.48 199.86 205.02 177.6" style="fill:#709d52;fill-rule:evenodd"/><polygon points="90.16 158.68 49.8 155.6 81.64 171.13 90.16 158.68" style="fill:#709d52;fill-rule:evenodd"/><polygon points="44.68 174.23 70.7 184.59 69.98 200.79 61.02 204.68 38.98 213.68 44.68 174.23" style="fill:#709d52;fill-rule:evenodd"/><polygon points="59.49 119.79 43.66 129.34 41.64 113.7 59.49 119.79" style="fill:#a0cf7e;fill-rule:evenodd"/><polygon points="64.76 136.31 50.37 142.24 85.3 143.24 64.76 136.31" style="fill:#a0cf7e;fill-rule:evenodd"/><polygon points="81.64 171.13 48.93 175.93 44.17 166.12 49.8 155.6 81.64 171.13" style="fill:#a0cf7e;fill-rule:evenodd"/><polygon points="194.53 169.4 178.34 190.54 172.94 173.34 194.53 169.4" style="fill:#a0cf7e;fill-rule:evenodd"/><polygon points="217.66 154.04 241.4 165.3 254.3 143.48 234.7 145.51 217.66 154.04" style="fill:#a0cf7e;fill-rule:evenodd"/><polygon points="231.44 130.03 257.36 113.53 274.2 120.16 231.44 130.03" style="fill:#a0cf7e;fill-rule:evenodd"/><polygon points="753.18 0 775.15 7.15 790.98 321.04 762.32 324.81 743.75 200.49 753.18 0" style="fill:#bbbfc6;fill-rule:evenodd"/><polygon points="308.77 34.55 753.18 0 762.32 324.81 594.79 313.99 470.56 293.72 388.28 301.06 308.77 295.5 303.04 137.16 308.77 34.55" style="fill:#eeeff1;fill-rule:evenodd"/><polygon points="495.81 59.72 493.89 42.3 507.11 41.15 505.96 59.53 495.81 59.72" style="fill:#bbbfc6;fill-rule:evenodd"/><polygon points="497.53 49 500.4 45.55 503.47 49 500.21 51.87 497.53 49" style="fill:#eeeff1;fill-rule:evenodd"/><polygon points="649.17 49.72 647.25 32.3 660.47 31.15 659.32 49.53 649.17 49.72" style="fill:#bbbfc6;fill-rule:evenodd"/><polygon points="650.89 39 653.77 35.55 656.83 39 653.57 41.87 650.89 39" style="fill:#eeeff1;fill-rule:evenodd"/><polygon points="484.25 65.26 676.23 54.06 682.98 194.65 487.75 192.78 484.25 65.26" style="fill:#f6f6f7;fill-rule:evenodd"/><polygon points="539.81 97.78 574.06 151.69 605.46 182.27 574.13 204.16 515.11 128.23 519.05 106.48 539.81 97.78" style="fill:#eeeff1;fill-rule:evenodd"/><polygon points="490.4 64.9 517.62 63.9 539.81 97.78 515.11 128.23 489.62 96.56 490.4 64.9" style="fill:#dddfe2;fill-rule:evenodd"/><polygon points="539.81 97.78 568.79 60.69 517.62 63.9 539.81 97.78" style="fill:#fff;fill-rule:evenodd"/><polygon points="515.11 128.23 489.62 160.37 489.62 96.56 515.11 128.23" style="fill:#fff;fill-rule:evenodd"/><polygon points="568.79 137.13 566.4 139.63 559.28 156.62 542.99 164.1 539.81 167.42 520.09 190.45 558.77 194.65 609.06 195.17 623.91 145.04 580.14 132.57 568.79 137.13" style="fill:#dddfe2;fill-rule:evenodd"/><polygon points="542.99 164.1 574.13 204.16 602.56 185.77 574.06 151.69 566.4 139.63 542.99 164.1" style="fill:#fff;fill-rule:evenodd"/><polygon points="643.52 160.84 660.27 145.04 677.63 131.51 669.43 189.08 663.49 195.81 627 191.09 635.75 175.02 643.52 160.84" style="fill:#dddfe2;fill-rule:evenodd"/><path d="M686.81,60.81,480.06,72.93l4.46,146.37,209.37,2.41Zm-186,141.84-3.17-115.5L671.51,77l6.12,127.33Z" transform="translate(-4.02 -16.32)" style="fill:#abafb8;fill-rule:evenodd"/><polygon points="333.03 86.67 373.39 85.38 373.82 141.21 333.46 142.06 333.03 86.67" style="fill:#f6f6f7;fill-rule:evenodd"/><polygon points="333.89 116.02 354.89 110.26 370.2 110.26 373.15 140.63 333.89 141.58 333.89 116.02" style="fill:#dddfe2;fill-rule:evenodd"/><path d="M382.23,97.49,330.83,99,332,163l51.4-.77Zm-42.59,57.83-.38-49.41,36-1.14.38,49.78Z" transform="translate(-4.02 -16.32)" style="fill:#cccfd4;fill-rule:evenodd"/><polygon points="340.85 182.28 345.83 173.21 351.45 182.68 349.53 182.68 345.7 176.79 342.51 182.68 340.85 182.28" style="fill:#dddfe2;fill-rule:evenodd"/><polygon points="327.84 180 364.85 181.07 366.35 226.71 326.81 225.47 327.84 180" style="fill:#cccfd4;fill-rule:evenodd"/><polygon points="333.89 186.6 359.49 187 360.13 220.57 333.03 219.68 333.89 186.6" style="fill:#f6f6f7;fill-rule:evenodd"/><polygon points="347.63 201.38 349.21 214.06 346.34 211.57 343.56 213.97 345.29 201.09 346.53 201 347.63 201.38" style="fill:#cccfd4;fill-rule:evenodd"/><polygon points="340.21 196.83 344.04 192.14 349.69 192.14 353.14 197.4 349.4 202.67 343.47 202.57 340.21 196.83" style="fill:#bbbfc6;fill-rule:evenodd"/><polygon points="344.52 197.12 346.72 194.53 349.12 197.31 346.34 200.09 344.52 197.12" style="fill:#f6f6f7;fill-rule:evenodd"/><polygon points="275.49 215.76 36.51 223.14 36.51 241.25 299.95 228.51 297.32 217.56 275.49 215.76" style="fill:#f9fafa;fill-rule:evenodd"/><polygon points="273.49 60.23 275.49 215.76 293.11 221.28 303.04 167.82 295.4 44.49 273.49 60.23" style="fill:#eeeff1;fill-rule:evenodd"/><polygon points="289.02 53.62 273.49 60.23 49.53 42.38 49.53 29.75 289.02 53.62" style="fill:#89909b;fill-rule:evenodd"/><path d="M37,23.47l-21.23,5.1L4,333l23.49,1.39s14.3-147.78,14.3-149.51S37,23.47,37,23.47Z" transform="translate(-4.02 -16.32)" style="fill:#eeeff1;fill-rule:evenodd"/><path d="M37,23.47,27.51,334.4l285.28-22.58v-261ZM50.49,250.09,58.72,49.86,293,69.94l4.09,167.66Z" transform="translate(-4.02 -16.32)" style="fill:#cccfd4;fill-rule:evenodd"/><polygon points="20.94 350.15 48.38 344.46 76.12 338.25 80.68 331.77 83.77 338.25 157.28 328.19 196.6 331.25 230.55 327.89 238.98 320.53 246.12 328.15 346.72 338.92 261.45 362.4 96 370.06 20.94 350.15" style="fill:#1d2432;fill-rule:evenodd;opacity:0.1"/><polygon points="362.51 321.95 375.83 313.38 379.85 323.19 518.2 330.46 535.15 322.06 545.36 330.75 536.98 336.92 597.45 351.68 664.85 340.19 685.81 343.54 696 334.32 697.53 345.3 730.72 349.64 783.83 332.79 762.32 324.81 757.74 162.18 716.61 158.68 694.28 182.68 689.87 212.91 663.49 278.15 638.75 259.87 556.31 275.12 388.08 282.76 362.51 321.95" style="fill:#1d2432;fill-rule:evenodd;opacity:0.1"/><polygon points="403.66 349.46 386.18 353.21 445.73 367 520.79 351.68 482.86 344.49 461.1 334.08 439.66 327.37 418.21 343.54 403.66 349.46" style="fill:#1d2432;fill-rule:evenodd;opacity:0.1"/><polygon points="379.85 323.19 394.56 321.06 412.21 295.5 383.52 295.5 379.85 323.19" style="fill:#787f8d;fill-rule:evenodd"/><polygon points="594.33 323.83 578.18 322.23 577.02 313.88 571.69 292.96 593.14 297.71 594.33 323.83" style="fill:#68707f;fill-rule:evenodd"/><polygon points="533.92 269.72 569.72 258.72 600.18 262.52 610.52 321.04 594.33 323.83 589.42 303.81 560.77 306.9 557.68 327.04 536.98 332.28 527.75 286.06 533.92 269.72" style="fill:#89909b;fill-rule:evenodd"/><polygon points="366.35 255.68 362.51 321.95 379.85 323.19 388.28 301.06 511.92 308.81 518.2 330.46 536.98 332.28 533.92 269.72 460.3 250.42 366.35 255.68" style="fill:#abafb8;fill-rule:evenodd"/><polygon points="349.94 243.96 535.17 263.18 605.66 244.96 437.51 232.13 349.94 243.96" style="fill:#99d1b9;fill-rule:evenodd"/><polygon points="349.94 243.96 351.32 260.87 533.92 269.72 541.02 262.22 536.28 257.34 349.94 243.96" style="fill:#47ad82;fill-rule:evenodd"/><polygon points="533.92 269.72 606.67 262.22 605.66 244.96 536.28 257.34 533.92 269.72" style="fill:#2b8b62;fill-rule:evenodd"/><polygon points="74.81 313.13 76.12 338.25 83.77 338.25 88.48 308.91 74.81 313.13" style="fill:#3e90aa;fill-rule:evenodd"/><polygon points="181.7 311.08 186.02 339.83 190.53 339.83 196.85 307.11 181.7 311.08" style="fill:#3e90aa;fill-rule:evenodd"/><polygon points="131.78 308.91 186.02 299.87 194.75 298.32 193.02 312.36 131.19 321.3 131.78 308.91" style="fill:#317186;fill-rule:evenodd"/><polygon points="70.7 184.59 129.52 178.61 139.19 188.79 74.04 190.54 70.7 184.59" style="fill:#8dc1d2;fill-rule:evenodd"/><polygon points="61.02 204.68 70.7 184.59 80.06 186.53 72.42 213.77 61.02 204.68" style="fill:#67acc3;fill-rule:evenodd"/><polygon points="71.38 205.43 61.02 204.68 74.81 313.13 131.19 321.3 131.78 308.91 84.77 296.53 71.38 205.43" style="fill:#347990;fill-rule:evenodd"/><polygon points="83.3 301.48 130.74 308.91 186.02 299.87 198.38 289.84 146.55 277.13 97.62 289.84 83.3 301.48" style="fill:#67acc3;fill-rule:evenodd"/><polygon points="80.06 186.53 112.08 184.57 144.05 184.57 156.75 293.72 101.8 299.85 83.3 301.48 71.38 205.43 80.06 186.53" style="fill:#3e90aa;fill-rule:evenodd"/><polygon points="226.02 277.13 230.55 327.89 238.45 329.04 244.3 272.79 226.02 277.13" style="fill:#787f8d;fill-rule:evenodd"/><polygon points="238.45 329.04 246.12 328.15 257.36 269.72 240.3 272.79 238.45 329.04" style="fill:#576071;fill-rule:evenodd"/><polygon points="305.36 339.83 313.53 338.25 322.02 266.39 303.04 268.93 305.36 339.83" style="fill:#576071;fill-rule:evenodd"/><polygon points="291.13 273.78 294.45 338.25 305.36 339.83 308.77 266.59 291.13 273.78" style="fill:#787f8d;fill-rule:evenodd"/><polygon points="57.66 345.55 66.38 343.54 73.28 265.82 56.24 269.94 57.66 345.55" style="fill:#576071;fill-rule:evenodd"/><polygon points="42.64 266.59 48.38 344.46 57.66 345.55 59.49 270.75 42.64 266.59" style="fill:#787f8d;fill-rule:evenodd"/><polygon points="157.3 325.25 168.99 342.06 155.3 345.06 136.09 342.06 136.09 332.54 145.51 325.12 157.3 325.25" style="fill:#96637c;fill-rule:evenodd"/><rect x="136.09" y="342.06" width="32.91" height="5.49" style="fill:#734d61"/><polygon points="211.75 317.52 231.44 334.34 210.98 337.34 190.53 334.34 190.53 324.81 199.96 317.4 211.75 317.52" style="fill:#96637c;fill-rule:evenodd"/><rect x="190.53" y="334.34" width="40.91" height="5.49" style="fill:#734d61"/><polygon points="153.74 293.66 186.02 299.87 213.19 283.77 169.76 277.13 153.74 293.66" style="fill:#6c4d7b;fill-rule:evenodd"/><polygon points="186.02 299.87 190.53 324.81 211.75 317.52 219.57 278.15 203.87 282.13 186.02 299.87" style="fill:#88619a;fill-rule:evenodd"/><polygon points="98.55 276.02 101.8 299.85 133.69 306.23 139.3 285.8 98.55 276.02" style="fill:#7a578a;fill-rule:evenodd"/><polygon points="137.13 291.13 166.98 287.29 157.3 325.25 136.09 332.54 133.69 306.23 137.13 291.13" style="fill:#88619a;fill-rule:evenodd"/><polygon points="112.08 184.57 145.88 216.54 155.3 183.02 132.96 179.49 112.08 184.57" style="fill:#f7f7f7;fill-rule:evenodd"/><polygon points="154.53 98.63 162.49 90.01 171.56 88.3 184.72 160.57 160.91 166.62 132.59 168.57 118.83 119.45 116.07 96.31 135.69 93.93 154.53 98.63" style="fill:#dfbda5;fill-rule:evenodd"/><polygon points="149.62 171.79 184.72 160.57 132.59 170.05 122 117.21 116.07 96.31 104.46 110.5 107.75 121.52 115.81 135.02 112.18 135.99 110.14 139.92 105.85 136.83 102.39 129.34 98.55 135.24 93.88 137.85 100.8 143.56 103.94 150.5 105.94 154.87 106.98 163.63 111.94 185.08 155.3 183.02 149.62 171.79" style="fill:#c3987b;fill-rule:evenodd"/><polygon points="175.38 109.31 178.78 84.17 165.91 86.26 175.38 109.31" style="fill:#404857;fill-rule:evenodd"/><polygon points="178.34 190.54 184.83 218.25 187.88 242.76 169.75 240.73 168.99 206.84 178.34 190.54" style="fill:#aa8094;fill-rule:evenodd"/><polygon points="184.83 218.25 195.64 223.14 196.85 242.1 177.45 243.59 172.94 235.18 184.83 218.25" style="fill:#96637c;fill-rule:evenodd"/><polygon points="129.52 114.82 144.05 122.34 153.24 138.37 152.14 123.45 149.62 115.4 146.6 113.82 139.91 112.82 129.52 114.82" style="fill:#c3987b;fill-rule:evenodd"/><polygon points="159.43 108.69 157.11 114.37 156.75 120.26 159.73 127.47 170.88 109.31 164.98 104.6 159.43 108.69" style="fill:#c3987b;fill-rule:evenodd"/><polygon points="145.93 109.05 129.01 110.21 129.52 114.82 146.6 113.82 145.93 109.05" style="fill:#404857;fill-rule:evenodd"/><polygon points="157.11 105.6 165.62 102.72 172.85 106.11 170.88 109.31 165.07 106.5 159.43 108.69 157.11 105.6" style="fill:#404857;fill-rule:evenodd"/><polygon points="157.11 114.37 161.49 136.31 157.99 138.68 153.24 138.37 149.62 115.4 157.11 114.37" style="fill:#e8cab6;fill-rule:evenodd"/><polygon points="110.14 139.92 111.94 144.05 107.36 150.89 103.94 150.5 93.88 137.85 102.39 129.34 110.14 139.92" style="fill:#dfbda5;fill-rule:evenodd"/><polygon points="154.53 98.63 178.78 84.17 152.98 67.92 150.98 84.75 154.53 98.63" style="fill:#68707f;fill-rule:evenodd"/><polygon points="154.53 98.63 152.98 67.92 85.88 93.21 100.35 97.63 116.07 96.31 154.53 98.63" style="fill:#787f8d;fill-rule:evenodd"/><polygon points="85.88 93.21 83.3 132.44 95.01 122.55 104.46 110.5 116.07 96.31 85.88 93.21" style="fill:#68707f;fill-rule:evenodd"/><polygon points="104.46 110.5 115.81 135.02 110.14 139.92 102.39 129.34 93.88 137.85 83.3 132.44 104.46 110.5" style="fill:#404857;fill-rule:evenodd"/><polygon points="97.62 139.28 101.62 135.27 107.94 142.91 97.62 139.28" style="fill:#8b6651;fill-rule:evenodd"/><polygon points="103.94 150.5 111.94 144.05 107.07 164.03 103.94 150.5" style="fill:#8b6651;fill-rule:evenodd"/><polygon points="161.49 136.31 157.88 142.24 153.24 138.37 161.49 136.31" style="fill:#8b6651;fill-rule:evenodd"/><polygon points="112.08 184.57 143.94 205.3 125.61 219.87 103.04 233.77 95.37 216.27 90.16 196.55 112.08 184.57" style="fill:#96637c;fill-rule:evenodd"/><polygon points="155.3 183.02 178.34 190.54 171.31 210.91 158.36 213.68 143.94 205.3 155.3 183.02" style="fill:#96637c;fill-rule:evenodd"/><polygon points="101.8 229.43 109.31 255.77 117.05 262.42 150.24 265.82 150.4 232.92 143.94 205.3 101.8 229.43" style="fill:#734d61;fill-rule:evenodd"/><polygon points="143.94 205.3 171.31 210.91 174.72 261.76 150.24 265.82 143.94 205.3" style="fill:#543042;fill-rule:evenodd"/><path d="M173.06,133a3.13,3.13,0,1,1-3.13-3.13A3.13,3.13,0,0,1,173.06,133Z" transform="translate(-4.02 -16.32)" style="fill:#232a38"/><path d="M148.07,138.66a3.13,3.13,0,1,1-3.13-3.14A3.13,3.13,0,0,1,148.07,138.66Z" transform="translate(-4.02 -16.32)" style="fill:#232a38"/><polygon points="123.65 169.72 184.72 160.57 155.3 173.47 155.3 183.02 123.65 169.72" style="fill:#8b6651;fill-rule:evenodd"/><polygon points="34.21 247.77 211.53 231.68 339.83 254.54 133.28 284.79 34.21 247.77" style="fill:#72cbcc;fill-rule:evenodd"/><polygon points="261.7 249.81 276.77 253.25 228 263.96 177.45 263.34 157.11 246.88 216.94 242.76 261.7 249.81" style="fill:#1d2432;fill-rule:evenodd;opacity:0.1"/><polygon points="76.12 243.97 96.4 256.84 121.38 262.85 133.69 260.46 142.77 263.96 145.51 255.85 114.89 245.45 76.12 243.97" style="fill:#1d2432;fill-rule:evenodd;opacity:0.1"/><polygon points="177.06 268.93 174.72 271.75 154.53 273.78 148.05 268.25 159.33 264.31 177.06 268.93" style="fill:#1d2432;fill-rule:evenodd;opacity:0.1"/><polygon points="90.16 196.55 76.12 243.97 98.52 246.88 101.8 229.43 90.16 196.55" style="fill:#aa8094;fill-rule:evenodd"/><polygon points="101.8 229.43 123.65 239.65 122.87 246.88 112.75 254.77 76.12 243.97 101.8 229.43" style="fill:#96637c;fill-rule:evenodd"/><polygon points="147.26 150.54 168.13 146.85 167.16 150.84 150.67 154.15 147.26 150.54" style="fill:#8b6651;fill-rule:evenodd"/><polygon points="123.65 239.65 137.13 244.66 128.23 254.77 112.75 254.77 123.65 239.65" style="fill:#dfbda5;fill-rule:evenodd"/><polygon points="137.13 244.66 145.51 255.85 139.38 258.72 137.13 244.66" style="fill:#dfbda5;fill-rule:evenodd"/><polygon points="137.13 244.66 142.77 263.96 121.38 262.85 112.75 254.77 137.13 244.66" style="fill:#c3987b;fill-rule:evenodd"/><polygon points="144.05 237.8 143.31 245.81 189.83 258.23 196.21 245.28 144.05 237.8" style="fill:#cc9c34;fill-rule:evenodd"/><polygon points="189.83 258.23 261.7 249.81 262.34 240.73 209.23 241.45 189.96 249.81 189.83 258.23" style="fill:#886822;fill-rule:evenodd"/><polygon points="144.05 237.8 211.53 231.68 262.34 240.73 189.96 249.81 144.05 237.8" style="fill:#f4d75c;fill-rule:evenodd"/><polygon points="157.68 238.74 211.15 233.77 246.12 240.16 189.05 246.44 157.68 238.74" style="fill:#fff7ae;fill-rule:evenodd"/><polygon points="163.28 241 225.7 235.25 228 236.15 166.6 241.89 163.28 241" style="fill:#f4d75c;fill-rule:evenodd"/><polygon points="176.55 243.94 238.21 237.55 240.64 238.32 178.47 244.96 176.55 243.94" style="fill:#f4d75c;fill-rule:evenodd"/><polygon points="152.75 248.33 171.89 247.57 177.45 263.34 161.14 265.39 148.92 262.52 152.75 248.33" style="fill:#787f8d;fill-rule:evenodd"/><polygon points="148.92 262.52 148.05 268.25 177.06 268.93 177.45 263.34 148.92 262.52" style="fill:#51596a;fill-rule:evenodd"/><polygon points="153.41 258.68 154.56 251.6 170.36 251.02 172.37 259.73 153.41 258.68" style="fill:#eeeff1;fill-rule:evenodd"/><polygon points="195.64 223.14 187.02 226.83 182.7 234.3 192.42 238.32 200.8 235.56 195.64 223.14" style="fill:#c3987b;fill-rule:evenodd"/><polygon points="187.02 226.83 192.42 238.32 202.47 235.56 195.64 223.14 187.02 226.83" style="fill:#dfbda5;fill-rule:evenodd"/><polygon points="189.96 249.81 205.02 177.6 226.98 181.17 196.85 252.62 189.96 249.81" style="fill:#cc9c34;fill-rule:evenodd"/><polygon points="205.02 177.6 275.45 171.13 285.7 175.47 247.66 187 213.96 181.17 205.02 177.6" style="fill:#f4d75c;fill-rule:evenodd"/><polygon points="213.96 181.17 285.7 175.47 270.89 242.15 196.85 252.62 213.96 181.17" style="fill:#aa822b;fill-rule:evenodd"/><polygon points="234.7 211.77 242.75 204.68 248.11 210.43 239.68 218.09 234.7 211.77" style="fill:#f4d75c;fill-rule:evenodd"/><polygon points="117.05 284.79 122.04 356.53 129.45 357.81 137.51 289.72 117.05 284.79" style="fill:#787f8d;fill-rule:evenodd"/><polygon points="129.45 357.81 139.3 356.77 148.92 282.5 132.51 293.72 129.45 357.81" style="fill:#576071;fill-rule:evenodd"/><polygon points="34.21 247.77 32.43 272.02 132.51 293.72 140.17 284.78 133.69 276.02 34.21 247.77" style="fill:#4fa9aa;fill-rule:evenodd"/><polygon points="132.51 293.72 336 276.36 339.83 254.54 133.69 276.02 132.51 293.72" style="fill:#359496;fill-rule:evenodd"/><polygon points="664.85 340.19 676.35 338.4 682.98 321.04 664.85 325.38 664.85 340.19" style="fill:#734d61;fill-rule:evenodd"/><polygon points="739.91 338.4 728.43 337.38 722.81 318.43 737.62 321.04 739.91 338.4" style="fill:#734d61;fill-rule:evenodd"/><polygon points="706.21 211.86 720 206.51 743.75 204.94 744.98 226.86 736.58 265.4 749.87 313.88 751.15 336.62 739.91 338.4 734.3 329.12 713.11 332.53 710.53 343.49 697.53 345.3 698.36 261.3 706.21 211.86" style="fill:#96637c;fill-rule:evenodd"/><polygon points="655.76 203.6 654.38 338.92 664.85 340.19 669.45 329.12 683.35 331.46 685.81 343.54 697.53 345.3 706.21 211.86 674.17 203.6 655.76 203.6" style="fill:#b3889d;fill-rule:evenodd"/><polygon points="655.76 203.6 695.71 196.96 743.75 204.94 706.21 211.86 655.76 203.6" style="fill:#d1a1b8;fill-rule:evenodd"/><polygon points="696.48 203.6 707.43 201.94 716.61 188.02 693.24 191.6 696.48 203.6" style="fill:#359496;fill-rule:evenodd"/><polygon points="675.6 189.43 684.66 201.55 696.48 203.6 695.51 195.17 686.33 189.83 675.6 189.43" style="fill:#4fa9aa;fill-rule:evenodd"/><polygon points="661.19 124.28 696.94 119.29 696.34 151 695.51 195.17 658.33 189.08 658.79 178.71 660.64 177.36 658.93 175.57 659.12 171.18 660.64 169.64 659.31 166.97 660.27 145.04 662.03 142.75 660.45 140.99 660.64 136.66 663.08 134.41 660.82 132.65 661.19 124.28" style="fill:#72cbcc;fill-rule:evenodd"/><polygon points="696.94 119.29 730.08 125.33 730.49 133.88 728.23 135.75 730.71 138.37 730.88 141.99 729.19 143.79 731.1 146.54 732.14 168.15 729.01 170.72 732.37 172.95 732.52 176.03 731.1 178.57 732.72 180.24 733.18 189.83 695.51 195.17 696.94 119.29" style="fill:#4fa9aa;fill-rule:evenodd"/><polygon points="660.64 136.66 696.66 134.04 698.19 131.28 696.76 128.47 660.82 132.65 660.64 136.66" style="fill:#94d5d5"/><polygon points="696.48 143.65 698.49 141.11 696.57 138.95 660.45 140.99 660.27 145.04 696.48 143.65" style="fill:#94d5d5"/><polygon points="695.71 184.24 698.79 181.38 695.79 179.88 658.93 175.57 658.79 178.71 695.71 184.24" style="fill:#94d5d5"/><polygon points="695.89 175.06 697.41 173.08 695.96 171.1 659.31 166.97 659.12 171.18 695.89 175.06" style="fill:#94d5d5"/><polygon points="696.76 128.47 730.49 133.88 730.71 138.37 696.66 134.04 696.76 128.47" style="fill:#72cbcc;fill-rule:evenodd"/><polygon points="696.57 138.95 730.88 141.99 731.1 146.54 696.48 143.65 696.57 138.95" style="fill:#72cbcc;fill-rule:evenodd"/><polygon points="695.96 171.1 732.14 168.15 732.37 172.95 695.89 175.06 695.96 171.1" style="fill:#72cbcc;fill-rule:evenodd"/><polygon points="695.79 179.88 732.52 176.03 732.72 180.24 695.71 184.24 695.79 179.88" style="fill:#72cbcc;fill-rule:evenodd"/><polygon points="744.98 226.86 722.81 231.68 718.09 311.08 749.87 313.88 744.98 226.86" style="fill:#9f80ae;fill-rule:evenodd"/><polygon points="665.62 215.7 695.49 220.32 694.47 226.86 665.05 221.63 665.62 215.7" style="fill:#f3eff5;fill-rule:evenodd"/><polygon points="667.85 244.51 675.17 242.17 682.79 246.9 691.14 244.77 694.28 245.28 692.33 274.45 667.46 279.35 667.85 244.51" style="fill:#96637c;fill-rule:evenodd"/><polygon points="675.17 242.17 674.17 271.51 673.91 279.94 662.85 283.96 664.85 240.49 675.17 242.17" style="fill:#734d61;fill-rule:evenodd"/><polygon points="662.85 283.96 674.17 271.51 692.33 274.45 691.4 288.36 662.85 283.96" style="fill:#d1a1b8;fill-rule:evenodd"/><polygon points="675.17 242.17 677.59 255.14 682.79 257.34 685.35 249.39 683.36 243.5 675.17 242.17" style="fill:#f3eff5;fill-rule:evenodd"/><polygon points="682.79 257.34 688.25 255.9 691.14 244.77 683.36 243.5 682.79 257.34" style="fill:#c3b0cc;fill-rule:evenodd"/><polygon points="655.76 203.6 677.59 207.17 683.36 243.5 664.85 240.49 662.85 283.96 670.61 285.15 669.45 329.12 664.85 340.19 654.38 338.92 655.76 203.6" style="fill:#1d2432;fill-rule:evenodd;opacity:0.1"/><polygon points="658.54 184.24 629.49 227.83 648.9 234.43 669.43 222.4 658.54 184.24" style="fill:#886822;fill-rule:evenodd"/><polygon points="562.13 163.97 539.34 198.06 542.69 214.36 555.41 218.21 563.94 214.02 566.78 185.21 562.13 163.97" style="fill:#886822;fill-rule:evenodd"/><polygon points="555.41 218.21 533.92 182.95 523.86 186.53 517.15 195.17 533.26 229.1 555.41 218.21" style="fill:#c29431;fill-rule:evenodd"/><polygon points="564.87 258.63 560.77 290.43 570.95 306.9 589.42 303.81 607.42 274.3 564.87 258.63" style="fill:#886822;fill-rule:evenodd"/><polygon points="589.42 303.81 560.77 290.43 559.27 302.06 568.79 313.85 583.51 313.49 589.42 303.81" style="fill:#71561c;fill-rule:evenodd"/><polygon points="557.14 316.69 549.72 321.3 537.01 332.36 560.13 334.08 577.3 332.36 578.18 322.23 562.13 312.8 557.14 316.69" style="fill:#b58b00;fill-rule:evenodd"/><polygon points="562.9 316.37 555.13 323.36 549.72 321.3 557.68 314.37 560.77 312.8 562.9 316.37" style="fill:#e5c828;fill-rule:evenodd"/><polygon points="591.88 280.57 597.04 298.44 613.26 306.9 629.49 302.54 638.75 259.87 604.53 269.9 591.88 280.57" style="fill:#c29431;fill-rule:evenodd"/><polygon points="629.49 302.54 597.04 298.44 600.8 311.5 614.53 319.19 627.68 311.62 629.49 302.54" style="fill:#886822;fill-rule:evenodd"/><polygon points="603.75 321.73 597.04 337.41 613.53 339.73 626.9 337.41 624.89 325.63 617.77 321.06 614.24 320.14 610.78 320.14 603.75 321.73" style="fill:#b58b00;fill-rule:evenodd"/><rect x="601.06" y="353.73" width="29.86" height="4.63" transform="translate(1227.96 695.77) rotate(-180)" style="fill:#e5c828"/><polygon points="617.77 324.22 616.72 331.67 608.14 331.67 610.97 323.01 614.24 322.23 617.77 324.22" style="fill:#e5c828;fill-rule:evenodd"/><rect x="541" y="348.6" width="40.33" height="4.63" transform="translate(1118.3 685.52) rotate(-180)" style="fill:#e5c828"/><polygon points="564.87 258.63 591.88 280.57 638.75 259.87 606.25 255.36 590.76 245.8 581.26 252.94 564.87 258.63" style="fill:#9f7928;fill-rule:evenodd"/><polygon points="569.74 168.88 581.26 163.76 589.17 174.61 595.53 189.83 616.51 182.69 637.27 178.13 646.97 188.89 640.54 227.83 637.27 237.85 638.75 259.87 599.39 266.59 590.76 246.91 580.2 264.35 564.87 258.63 563.94 214.02 569.74 168.88" style="fill:#e5c828;fill-rule:evenodd"/><polygon points="643.52 160.84 635.68 152.66 634.48 160.15 629.74 168.07 643.52 160.84" style="fill:#71561c;fill-rule:evenodd"/><polygon points="589.59 143.52 574.06 151.69 581.26 163.76 595.53 189.83 594.76 163.32 589.59 143.52" style="fill:#71561c;fill-rule:evenodd"/><polygon points="640.54 227.83 637.27 178.13 658.54 184.24 640.54 227.83" style="fill:#aa822b;fill-rule:evenodd"/><polygon points="562.13 163.97 563.94 214.02 581.26 163.76 562.13 163.97" style="fill:#c29431;fill-rule:evenodd"/><polygon points="642.87 78.74 600.59 62.23 583.93 67.25 568.79 137.13 589.59 143.52 592.44 152.55 595.35 158.47 614.41 168.88 630.1 158.98 653.93 131.78 663.49 116.88 666.17 101.58 642.87 78.74" style="fill:#dfbda5;fill-rule:evenodd"/><polygon points="637.72 78.2 615.91 152.95 589.59 143.52 592.05 152.89 591.83 162.13 595.53 189.83 619.57 175.97 634.11 162.68 647.95 141.12 648.44 135 642.14 122.93 652.18 108.67 663.49 116.88 670.61 105.93 648.95 84.7 642.87 78.74 637.72 78.2" style="fill:#c3987b;fill-rule:evenodd"/><polygon points="594.8 113.68 607.86 95.06 624.44 89.69 605.47 83.85 600.59 89.76 593.68 102.2 594.8 113.68" style="fill:#c3987b;fill-rule:evenodd"/><polygon points="593.5 88.06 592.73 82.03 581.48 78.57 590.3 106.3 593.5 88.06" style="fill:#c3987b;fill-rule:evenodd"/><polygon points="642.14 122.93 653.93 131.78 647.95 141.11 642.14 122.93" style="fill:#8b6651;fill-rule:evenodd"/><polygon points="598.11 100 619.7 118.06 628.59 109.5 632.39 109.36 638.28 105.07 624.44 102.13 598.11 100" style="fill:#8b6651;fill-rule:evenodd"/><polygon points="590.93 98.65 576.08 103.49 576.71 100.57 579.61 95.38 590.93 98.65" style="fill:#8b6651;fill-rule:evenodd"/><polygon points="647.68 86.6 625.74 119.25 637.19 129.96 652.18 108.67 663.49 116.88 670.61 105.93 659.18 92.08 647.68 86.6" style="fill:#886822;fill-rule:evenodd"/><polygon points="589.59 89.69 602.56 93.21 598.11 100 594.8 113.68 591.25 114.37 587.71 111.96 590.93 98.65 589.59 89.69" style="fill:#e8cab6;fill-rule:evenodd"/><polygon points="648.25 121.78 652.85 113.83 659.64 118.53 648.25 121.78" style="fill:#8b6651;fill-rule:evenodd"/><polygon points="624.44 89.69 611.3 80.75 605.47 83.85 624.44 89.69" style="fill:#886822;fill-rule:evenodd"/><polygon points="592.73 82.03 587.11 76.14 581.48 78.57 592.73 82.03" style="fill:#886822;fill-rule:evenodd"/><polygon points="578.9 116.79 608.25 124.73 596.33 133.88 583.26 130.1 578.9 116.79" style="fill:#8b6651;fill-rule:evenodd"/><polygon points="582.69 120.33 602.65 125.8 599.15 128.23 583.88 123.92 582.69 120.33" style="fill:#fff;fill-rule:evenodd"/><polygon points="587.71 111.96 590.76 117.01 594.8 113.68 587.71 111.96" style="fill:#8b6651;fill-rule:evenodd"/><polygon points="632.39 109.36 650.92 110.45 652.18 108.67 642.28 105.93 634.09 106.83 632.39 109.36" style="fill:#71561c;fill-rule:evenodd"/><polygon points="589.59 143.52 624.63 153.74 591.83 162.13 589.59 143.52" style="fill:#8b6651;fill-rule:evenodd"/><polygon points="597.8 46.27 667.49 60.69 675.48 82.76 634.11 67.25 597.8 46.27" style="fill:#c29431;fill-rule:evenodd"/><polygon points="637.72 78.2 670.61 105.93 675.48 82.76 646.04 68.34 634.13 69.68 637.72 78.2" style="fill:#9f7928;fill-rule:evenodd"/><polygon points="637.72 78.2 646.04 68.34 597.8 46.27 596.27 60.45 597.8 74 637.72 78.2" style="fill:#886822;fill-rule:evenodd"/><polygon points="597.8 46.27 566.24 38.66 583.93 67.25 597.8 74 597.8 46.27" style="fill:#c29431;fill-rule:evenodd"/><polygon points="627 96.08 662.58 104.65 663.49 116.88 652.18 108.67 624.44 105.75 624.77 100.36 627 96.08" style="fill:#3d4554;fill-rule:evenodd"/><polygon points="593.5 88.06 600.59 89.76 600.97 92.78 599.09 95.96 592.01 94.18 591.25 91.59 593.5 88.06" style="fill:#3d4554;fill-rule:evenodd"/><path d="M575.37,99.08l22.15,5.3L595,115l-24.15,3.27,4.57-19.16Zm29.25,7L631,112.4l-5.11,19.34-23.78-15.42Z" transform="translate(-4.02 -16.32)" style="fill:#4b5464;fill-rule:evenodd"/><polygon points="613.53 169.42 643.52 160.84 637.27 178.13 595.53 189.83 613.53 169.42" style="fill:#c29431;fill-rule:evenodd"/><polygon points="636.93 235.8 595.35 219.35 590.76 219.35 564.34 232.92 590.76 245.8 608.38 241.06 636.93 235.8" style="fill:#ccad14;fill-rule:evenodd"/><polygon points="595.53 189.83 595.35 219.35 590.76 246.91 590.76 219.35 595.53 189.83" style="fill:#c29431;fill-rule:evenodd"/><polygon points="669.43 222.4 633.95 218.87 624.83 227.47 627.54 237.83 660.94 245.91 669.43 222.4" style="fill:#c29431;fill-rule:evenodd"/><polygon points="627.68 311.62 600.8 311.5 603.75 321.73 610.96 323.06 614.24 320.14 617.76 324.31 624.89 325.63 627.68 311.62" style="fill:#9f7928;fill-rule:evenodd"/><polygon points="617.75 324.31 617.75 316.69 610.52 315.96 610.96 323.06 617.75 324.31" style="fill:#ccad14;fill-rule:evenodd"/><polygon points="583.51 313.49 559.27 302.06 558.64 306.9 562.9 316.37 578.18 322.23 583.51 313.49" style="fill:#9f7928;fill-rule:evenodd"/><polygon points="562.9 316.37 564.34 308.63 558.64 306.9 557.68 314.37 562.9 316.37" style="fill:#ccad14;fill-rule:evenodd"/><polygon points="533.92 182.95 527.59 172.93 516.89 175.46 507.67 186.33 517.15 195.17 533.92 182.95" style="fill:#c3987b;fill-rule:evenodd"/><polygon points="533.92 182.95 539.81 167.42 535.53 164.24 522.39 178.56 525.47 189.08 533.92 182.95" style="fill:#dfbda5;fill-rule:evenodd"/><polygon points="527.59 172.93 515.43 152.83 510.52 155.73 518.79 175.02 527.59 172.93" style="fill:#c3987b;fill-rule:evenodd"/><polygon points="515.29 166.87 505.98 174.33 507.67 186.33 522.39 178.56 515.29 166.87" style="fill:#dfbda5;fill-rule:evenodd"/><polygon points="633.95 218.87 629.23 211.89 624.83 218.87 633.95 218.87" style="fill:#8b6651;fill-rule:evenodd"/><polygon points="617.66 200.49 631.57 204.94 616.25 215.82 617.66 200.49" style="fill:#4fa9aa;fill-rule:evenodd"/><polygon points="605.66 204.94 617.66 200.49 618.17 207.75 611.91 212.91 605.66 204.94" style="fill:#359496;fill-rule:evenodd"/><polygon points="605.66 204.94 606.67 218.37 610.02 226.84 607.79 233.23 608.38 241.06 617.66 243.62 622 220.57 618.17 207.75 605.66 204.94" style="fill:#4fa9aa;fill-rule:evenodd"/><polygon points="618.17 207.75 631.57 204.94 627.21 240.51 617.66 243.62 618.17 207.75" style="fill:#359496;fill-rule:evenodd"/><polygon points="633.95 218.87 618.08 214.4 615.45 224.28 617.73 238.53 627.54 237.83 633.95 218.87" style="fill:#c3987b;fill-rule:evenodd"/><polygon points="618.08 214.4 606.67 218.37 607.79 233.23 617.73 238.53 618.08 214.4" style="fill:#dfbda5;fill-rule:evenodd"/><polygon points="480.25 189.54 494.17 193.98 478.85 204.86 480.25 189.54" style="fill:#72cbcc;fill-rule:evenodd"/><polygon points="468.25 193.98 480.25 189.54 480.77 196.79 474.51 201.96 468.25 193.98" style="fill:#4fa9aa;fill-rule:evenodd"/><polygon points="451.8 75.68 449.08 89.31 439.66 68.92 451.8 75.68" style="fill:#232a38;fill-rule:evenodd"/><polygon points="445.56 322.06 450.96 328.94 453.41 335.06 450.65 344.38 445.48 344.37 443.69 331.46 445.56 322.06" style="fill:#404857;fill-rule:evenodd"/><polygon points="482.86 344.49 459.11 344.49 445.56 322.06 456.27 318.43 469.25 329.12 482.6 338.56 482.86 344.49" style="fill:#68707f;fill-rule:evenodd"/><polygon points="405.28 327.04 410.68 333.92 414.1 341.63 410.66 349.46 403.66 349.46 402.03 335.18 405.28 327.04" style="fill:#404857;fill-rule:evenodd"/><polygon points="432.42 349.46 410.66 349.46 397.11 327.04 407.82 323.4 432.15 343.54 432.42 349.46" style="fill:#68707f;fill-rule:evenodd"/><polygon points="366.91 137.82 356.66 158.99 376.48 177.93 381.32 140.63 366.91 137.82" style="fill:#404857;fill-rule:evenodd"/><polygon points="393.32 150.05 355.12 133.6 360.7 125.26 366.35 122.81 386.96 131.05 393.32 150.05" style="fill:#232a38;fill-rule:evenodd"/><polygon points="442.74 170.13 447.2 167.63 453.67 166.69 465.97 205.39 465.7 217.13 452.66 229.73 445.43 216.13 442.74 170.13" style="fill:#5a753d;fill-rule:evenodd"/><polygon points="442.7 170.15 453.67 166.69 434.26 158.57 436.6 170.4 442.7 170.15" style="fill:#648e43;fill-rule:evenodd"/><polygon points="465.97 205.39 472.8 207.99 475.4 213.52 472.97 222.03 452.66 229.73 465.97 205.39" style="fill:#86b264;fill-rule:evenodd"/><polygon points="423.32 297.55 433.12 321.68 432.15 343.54 391.39 332.23 397.21 289.84 423.32 297.55" style="fill:#44622d;fill-rule:evenodd"/><polygon points="434.26 158.57 414.64 167.96 403.1 162.18 400.77 179.99 401.3 193.38 433.96 196.31 451.15 181.72 434.26 158.57" style="fill:#d4d4d3;fill-rule:evenodd"/><polygon points="451.15 181.72 461.1 197.4 448.55 245.45 421.77 254.54 394.56 244.93 397.86 215.7 401.3 193.38 438.69 187.22 451.15 181.72" style="fill:#44622d;fill-rule:evenodd"/><polygon points="461.1 197.4 397.86 215.7 391.67 195.79 401.3 193.38 438.6 184.95 451.15 181.72 461.1 197.4" style="fill:#709d52;fill-rule:evenodd"/><polygon points="403.1 162.18 382.55 179.33 394.74 180.05 402.15 178.61 403.1 162.18" style="fill:#648e43;fill-rule:evenodd"/><polygon points="382.55 179.33 370.2 213.77 380.07 218.03 389.87 217.48 401.3 193.38 402.15 178.61 382.55 179.33" style="fill:#5a753d;fill-rule:evenodd"/><polygon points="445.85 74.14 449.08 89.31 460.3 141.9 434.95 149.54 425.7 168.78 392.18 140.23 381.33 134.87 376.22 137.82 366.35 122.81 372.34 115.97 379.12 113.78 382.43 115.34 383.52 122.15 383.84 104.07 389.25 86.91 401.07 74.92 417.22 67.53 433.96 68.39 445.85 74.14" style="fill:#dfbda5;fill-rule:evenodd"/><polygon points="389.25 86.91 399.93 96.49 414.06 156.65 430.27 155.94 433.17 167.82 431.35 186.59 403.1 162.18 393.32 150.05 389.25 142.45 385.74 140.63 383.52 122.15 383.68 113.11 385.74 108.53 384.68 101.42 389.25 86.91" style="fill:#c3987b;fill-rule:evenodd"/><polygon points="427.24 116.31 412.1 99.91 399.93 96.49 405.64 92.77 412.93 91.21 418.21 90.33 427.24 116.31" style="fill:#c3987b;fill-rule:evenodd"/><polygon points="425.7 88.12 430.54 86.36 436.93 84.07 443.54 85.48 435.29 92.58 431.29 103.82 425.7 88.12" style="fill:#c3987b;fill-rule:evenodd"/><polygon points="434.95 114.11 431.98 119.29 427.24 116.31 434.95 114.11" style="fill:#8b6651;fill-rule:evenodd"/><polygon points="418.21 90.33 427.24 116.31 434.95 114.11 425.7 88.12 418.21 90.33" style="fill:#e8cab6;fill-rule:evenodd"/><polygon points="412.21 131.05 437.01 139.5 447.12 123.52 432.79 126.3 412.21 131.05" style="fill:#648e43;fill-rule:evenodd"/><polygon points="371.22 123.72 377.99 119.35 382.2 128.32 371.22 123.72" style="fill:#8b6651;fill-rule:evenodd"/><polygon points="379.12 113.78 379.64 110.19 385.74 108.53 383.52 122.15 379.12 113.78" style="fill:#232a38;fill-rule:evenodd"/><polygon points="355.12 133.6 354.89 110.26 370.69 96.19 389.25 86.91 385.74 108.53 379.12 113.78 366.35 122.81 355.12 133.6" style="fill:#404857;fill-rule:evenodd"/><polygon points="400.7 41.55 453.86 64.77 451.8 75.68 445.85 74.14 417.22 67.53 407.94 58.9 400.7 41.55" style="fill:#404857;fill-rule:evenodd"/><polygon points="354.89 110.26 354.89 81.85 400.7 41.55 417.22 67.53 389.25 86.91 354.89 110.26" style="fill:#68707f;fill-rule:evenodd"/><polygon points="434.95 149.54 406.71 156.88 433.17 167.82 434.95 149.54" style="fill:#8b6651;fill-rule:evenodd"/><polygon points="389.25 136.91 393.32 150.05 385.74 140.63 386.62 136.91 389.25 136.91" style="fill:#8b6651;fill-rule:evenodd"/><polygon points="448.55 245.45 446.71 307.11 397.21 289.84 394.56 244.93 448.55 245.45" style="fill:#648e43;fill-rule:evenodd"/><polygon points="448.55 245.45 448.6 283 469.25 329.12 432.15 343.54 397.21 289.84 448.55 245.45" style="fill:#709453;fill-rule:evenodd"/><polygon points="379.12 131.99 385.74 140.63 389.25 136.91 384.26 128.32 379.12 131.99" style="fill:#33a474;fill-rule:evenodd"/><path d="M419.12,118.35a3.27,3.27,0,1,1-3.27-3.27A3.27,3.27,0,0,1,419.12,118.35Z" transform="translate(-4.02 -16.32)" style="fill:#232a38;fill-rule:evenodd"/><path d="M444.8,110.83a3.27,3.27,0,1,1-3.27-3.27A3.26,3.26,0,0,1,444.8,110.83Z" transform="translate(-4.02 -16.32)" style="fill:#232a38;fill-rule:evenodd"/><polygon points="397.21 289.84 469.25 329.12 448.55 245.45 397.21 289.84" style="fill:#86b264;fill-rule:evenodd"/><polygon points="389.87 217.48 394.56 244.93 388.21 253.25 379.67 246.09 370.2 213.77 389.87 217.48" style="fill:#86b264;fill-rule:evenodd"/><polygon points="394.56 244.93 395.26 255.9 405.82 258.29 408.06 254.86 394.56 244.93" style="fill:#c3987b;fill-rule:evenodd"/><polygon points="394.56 244.93 402.05 260.46 393.36 267.91 383.62 262.45 379.67 246.09 394.56 244.93" style="fill:#dfbda5;fill-rule:evenodd"/><polygon points="402.05 260.46 404.17 273.63 391.44 273.78 383.62 262.45 402.05 260.46" style="fill:#c3987b;fill-rule:evenodd"/><polygon points="440.38 130.03 436.19 136.78 426.58 133.35 433.64 130.83 440.38 130.03" style="fill:#446125;fill-rule:evenodd"/><polygon points="416.62 130.32 426.58 133.35 440.38 130.03 443.96 124.13 432.79 127.73 416.62 130.32" style="fill:#fff;fill-rule:evenodd"/><polygon points="412.21 131.05 432.97 122.42 447.12 123.52 432.79 128.73 412.21 131.05" style="fill:#446125;fill-rule:evenodd"/><polygon points="430.54 86.36 436.93 82.4 443.54 85.48 430.54 86.36" style="fill:#404857;fill-rule:evenodd"/><polygon points="412.93 91.21 405.66 90.55 399.93 96.49 412.93 91.21" style="fill:#404857;fill-rule:evenodd"/><polygon points="472.94 202.64 465.97 205.39 467.07 211.13 473.7 214.76 472.94 202.64" style="fill:#dfbda5;fill-rule:evenodd"/><polygon points="468.25 193.98 470.98 230.11 480.25 232.66 484.6 209.62 480.77 196.79 468.25 193.98" style="fill:#72cbcc;fill-rule:evenodd"/><polygon points="480.77 196.79 494.17 193.98 489.81 229.55 480.25 232.66 480.77 196.79" style="fill:#4fa9aa;fill-rule:evenodd"/><polygon points="493.49 199.51 499.18 203.39 495.48 216.8 491 219.86 490.4 209.3 493.49 199.51" style="fill:#c3987b;fill-rule:evenodd"/><polygon points="493.49 199.51 485.75 202.09 486.8 216.93 491 219.86 493.49 199.51" style="fill:#dfbda5;fill-rule:evenodd"/></svg>