<svg xmlns="http://www.w3.org/2000/svg" xmlns:xlink="http://www.w3.org/1999/xlink" viewBox="0 0 793.66 373.47"><defs><clipPath id="a" transform="translate(-2.87 -14.38)"><polygon points="26.87 23.85 307.57 49.39 777 25.89 759.32 327.04 303.7 286.74 43.72 327.04 26.87 23.85" style="fill:none"/></clipPath></defs><polygon points="24 9.47 304.7 35.01 774.13 11.51 746.76 296.55 301.8 260.62 47.49 302.5 24 9.47" style="fill:#eeeff1"/><g style="clip-path:url(#a)"><polygon points="389.75 102.79 390 84.15 391.66 84.28 391.79 103.55 389.75 102.79" style="fill:#dddfe2"/><polygon points="378.13 198.4 380.68 99.62 398.55 98.83 398.22 219.16 378.13 198.4" style="fill:#dddfe2"/><polygon points="398.55 98.83 419.75 99.85 421.28 219.85 396.77 220.11 398.55 98.83" style="fill:#cccfd4"/><polygon points="590.68 136.75 590.49 90.6 602.17 90.02 604.66 193.43 589.15 193.43 590.68 136.75" style="fill:#dddfe2"/><polygon points="602.17 90.02 611.49 91.55 613.79 160.87 603.19 163.43 602.17 90.02" style="fill:#cccfd4"/><polygon points="555.1 72.97 564.51 71.25 569.07 219 553.8 217 555.1 72.97" style="fill:#dddfe2"/><polygon points="564.51 71.25 575.35 73.25 577.63 219.85 565.65 219.85 564.51 71.25" style="fill:#cccfd4"/><polygon points="715.15 85.81 734.55 89.13 738.64 201.98 709.02 201.21 715.15 85.81" style="fill:#bbbfc6"/><polygon points="687.19 88.49 715.15 85.81 710.94 281.89 664.6 281.13 687.19 88.49" style="fill:#cccfd4"/><polygon points="723.73 114.04 723.45 92.96 721.28 92.7 721.39 113.85 723.73 114.04" style="fill:#9a9fa9"/><polygon points="730.03 114.56 729.45 93.72 727.4 93.72 727.86 114.38 730.03 114.56" style="fill:#9a9fa9"/><polygon points="727.93 117.6 728.43 139.81 730.72 139.68 730.11 117.6 727.93 117.6" style="fill:#9a9fa9"/><polygon points="721.41 117.6 721.53 139.94 724.09 139.81 723.78 117.6 721.41 117.6" style="fill:#9a9fa9"/><polygon points="591.18 153.59 643.08 155.22 643.53 312.92 587.21 307.92 591.18 153.59" style="fill:#dddfe2"/><polygon points="598.85 164.45 601.91 164.57 601.66 171.09 598.47 170.96 598.85 164.45" style="fill:#bbbfc6"/><polygon points="608.17 165.09 607.79 171.47 610.72 171.72 611.11 165.47 608.17 165.09" style="fill:#bbbfc6"/><polygon points="597.96 180.79 601.28 180.91 600.89 187.3 597.96 186.91 597.96 180.79" style="fill:#bbbfc6"/><polygon points="607.28 181.55 610.47 181.94 609.83 187.81 607.02 187.68 607.28 181.55" style="fill:#bbbfc6"/><polygon points="597.57 198.02 600.64 198.28 600.25 204.53 597.19 204.02 597.57 198.02" style="fill:#bbbfc6"/><polygon points="606.77 198.91 609.32 199.17 608.81 205.04 606 204.66 606.77 198.91" style="fill:#bbbfc6"/><polygon points="596.96 213.22 599.78 213.43 599.72 220.59 596.63 220.28 596.96 213.22" style="fill:#bbbfc6"/><polygon points="596.36 229.3 599.04 229.55 598.66 235.68 595.98 235.43 596.36 229.3" style="fill:#bbbfc6"/><polygon points="669.9 152.62 667.66 308.28 638.3 310.97 637.02 157.66 651.36 152.66 669.9 152.62" style="fill:#cccfd4"/><polygon points="591.18 153.59 624.25 149.13 670.98 152.43 637.02 157.66 591.18 153.59" style="fill:#f9fafa"/><polygon points="379.66 199.55 372 186.62 409.21 182.82 435.57 193.72 388.47 205.3 379.66 199.55" style="fill:#f9fafa"/><polygon points="379.66 199.55 435.57 193.72 433.66 295.68 376.6 285.72 379.66 199.55" style="fill:#dddfe2"/><polygon points="382.34 258.25 423.13 254.61 422.55 259.97 378.13 263.42 382.34 258.25" style="fill:#bbbfc6"/><polygon points="379.47 269.54 421.98 266.29 421.79 271.55 379.28 274.71 379.47 269.54" style="fill:#bbbfc6"/><polygon points="382.63 280.17 418.25 277.87 417.38 283.62 384.06 284.77 382.63 280.17" style="fill:#bbbfc6"/><polygon points="392.65 147.83 363.32 144.77 312.16 146.92 348 155.04 392.65 147.83" style="fill:#f9fafa"/><polygon points="312.16 146.92 344.43 150.98 356.68 231.01 339.83 281.54 309.65 280.35 312.16 146.92" style="fill:#dddfe2"/><polygon points="344.43 150.98 392.65 147.83 389.11 288.46 339.83 281.54 344.43 150.98" style="fill:#cccfd4"/><polygon points="352.66 160.49 357.06 160.11 356.87 168.34 352.47 168.72 352.66 160.49" style="fill:#9a9fa9"/><polygon points="365.3 159.34 369.89 158.96 369.7 167.19 365.11 167.57 365.3 159.34" style="fill:#9a9fa9"/><polygon points="378.51 158.77 382.72 158.38 382.92 166.43 377.75 167 378.51 158.77" style="fill:#9a9fa9"/><polygon points="351.96 180.53 356.94 180.15 356.68 187.94 352.47 188.32 351.96 180.53" style="fill:#9a9fa9"/><polygon points="376.47 250.23 381.45 249.85 381.19 257.64 376.98 258.02 376.47 250.23" style="fill:#9a9fa9"/><polygon points="365.23 180.02 369.45 179.64 369.32 187.04 365.11 187.43 365.23 180.02" style="fill:#9a9fa9"/><polygon points="378 179.25 382.08 178.87 382.21 185.89 377.75 186.28 378 179.25" style="fill:#9a9fa9"/><polygon points="352.21 199.68 356.68 199.17 356.43 206.45 352.34 206.83 352.21 199.68" style="fill:#9a9fa9"/><polygon points="377.23 232.11 381.7 231.6 381.45 238.87 377.36 239.25 377.23 232.11" style="fill:#9a9fa9"/><polygon points="364.85 198.66 369.06 198.28 369.06 205.04 364.98 205.43 364.85 198.66" style="fill:#9a9fa9"/><polygon points="350.55 254.06 354.77 253.68 354.77 260.45 350.68 260.83 350.55 254.06" style="fill:#9a9fa9"/><polygon points="377.87 197.51 382.08 197.13 382.08 204.15 377.75 204.28 377.87 197.51" style="fill:#9a9fa9"/><polygon points="363.96 251.89 368.17 251.51 368.17 258.53 363.83 258.66 363.96 251.89" style="fill:#9a9fa9"/><polygon points="351.7 219.47 356.3 218.83 355.92 225.72 351.96 226.11 351.7 219.47" style="fill:#9a9fa9"/><polygon points="364.85 218.06 368.94 217.55 368.81 224.19 364.72 224.57 364.85 218.06" style="fill:#9a9fa9"/><polygon points="377.23 216.91 380.68 216.4 380.68 222.79 377.23 223.04 377.23 216.91" style="fill:#9a9fa9"/><polygon points="350.94 236.83 355.02 236.19 354.89 243.47 351.19 243.98 350.94 236.83" style="fill:#9a9fa9"/><polygon points="364.46 233.86 368.21 233.45 368.21 240.94 364.05 241.36 364.46 233.86" style="fill:#9a9fa9"/><polygon points="123.66 159.85 151.02 157.43 162.89 161.06 139.47 166.94 123.66 159.85" style="fill:#f9fafa"/><polygon points="123.66 159.85 140.53 164.88 142.72 242.83 121.08 241 123.45 171.24 123.66 159.85" style="fill:#dddfe2"/><polygon points="140.53 164.88 162.89 161.06 166.33 259.03 139.47 259.03 140.53 164.88" style="fill:#cccfd4"/><polygon points="144.8 169.01 147.19 168.63 147.1 171.98 144.8 172.46 144.8 169.01" style="fill:#abafb8"/><polygon points="150.73 168.15 153.32 167.67 153.32 171.21 150.83 171.69 150.73 168.15" style="fill:#abafb8"/><polygon points="156.86 167 158.97 166.71 159.06 170.06 157.05 170.54 156.86 167" style="fill:#abafb8"/><polygon points="145.09 176.48 147.29 176.1 147.38 179.35 145.09 179.83 145.09 176.48" style="fill:#abafb8"/><polygon points="151.02 175.81 153.32 175.43 153.41 178.59 151.12 178.87 151.02 175.81" style="fill:#abafb8"/><polygon points="157.34 174.66 159.35 174.18 159.45 177.53 157.34 177.91 157.34 174.66" style="fill:#abafb8"/><polygon points="145.28 184.04 147.38 183.75 147.38 187.49 145.09 187.78 145.28 184.04" style="fill:#abafb8"/><polygon points="151.4 183.37 153.61 182.99 153.61 186.25 151.4 186.63 151.4 183.37" style="fill:#abafb8"/><polygon points="144.99 192.28 147.19 191.99 147.19 195.34 144.99 195.72 144.99 192.28" style="fill:#abafb8"/><polygon points="90.13 93.72 90.51 69.34 92.62 69.34 92.62 102.28 90.13 93.72" style="fill:#cccfd4"/><polygon points="90.13 93.72 96.89 94.05 97.45 94.59 98.07 94.11 103.71 94.38 104.37 94.98 105.26 94.45 111.32 94.75 114.38 199.43 84.51 205.55 82.98 107.51 90.13 93.72" style="fill:#abafb8"/><polygon points="67.92 95.81 90.13 93.72 89.11 195.34 68.17 197.64 67.92 95.81" style="fill:#cccfd4"/><polygon points="98.07 94.11 96.89 94.05 96.77 178.49 98.68 178.49 98.07 94.11" style="fill:#f6f6f7"/><polygon points="105.57 178.23 106.98 178.23 105.26 94.45 103.71 94.38 105.57 178.23" style="fill:#f6f6f7"/><polygon points="160.98 195.72 241.28 185.13 281.62 190.36 205.4 203.92 160.98 195.72" style="fill:#f9fafa"/><polygon points="205.4 200.32 160.98 195.72 160.19 219.52 159.45 290.32 208.85 296.06 213.83 225.6 205.4 200.32" style="fill:#dddfe2"/><polygon points="281.62 190.36 205.4 200.32 208.85 296.06 282 283.04 281.62 190.36" style="fill:#cccfd4"/><polygon points="241.98 235.36 247.72 234.79 247.91 242.83 242.55 243.4 241.98 235.36" style="fill:#9a9fa9"/><polygon points="255.38 234.02 260.94 233.25 261.13 240.72 255.77 241.49 255.38 234.02" style="fill:#9a9fa9"/><polygon points="268.6 231.72 274.34 230.77 274.53 238.23 268.79 239 268.6 231.72" style="fill:#9a9fa9"/><polygon points="242.94 252.69 247.91 251.9 248.3 258.89 243.32 259.68 242.94 252.69" style="fill:#9a9fa9"/><polygon points="255.96 250.57 261.19 249.78 261.57 256.65 256.6 257.44 255.96 250.57" style="fill:#9a9fa9"/><polygon points="269.23 248.73 274.34 247.94 274.72 255.06 269.62 255.85 269.23 248.73" style="fill:#9a9fa9"/><polygon points="243.96 267.34 248.81 266.32 249.19 273.72 244.34 274.62 243.96 267.34" style="fill:#9a9fa9"/><polygon points="257.11 265.3 261.83 264.4 262.34 271.43 257.62 272.06 257.11 265.3" style="fill:#9a9fa9"/><polygon points="270.25 262.87 274.72 262.11 274.98 269.25 270.51 270.15 270.25 262.87" style="fill:#9a9fa9"/><polygon points="93.07 225.7 160.19 219.52 190.18 227.96 129.27 244.39 111.06 239.06 93.07 225.7" style="fill:#f9fafa"/><polygon points="190.18 227.96 195.25 298.36 127.75 308.13 110.41 238.58 190.18 227.96" style="fill:#dddfe2"/><polygon points="138.19 255.85 142.21 255.37 142.69 264.85 138.77 265.33 138.19 255.85" style="fill:#9a9fa9"/><polygon points="139.47 274.68 143.3 274.2 143.87 283.68 139.95 284.25 139.47 274.68" style="fill:#9a9fa9"/><polygon points="123.45 171.24 69.7 159.85 52.67 172.11 63.32 186.1 123.45 171.24" style="fill:#f9fafa"/><polygon points="71.45 176.57 123.45 171.24 134.01 303.85 75.01 313.04 71.45 176.57" style="fill:#cccfd4"/><polygon points="124.51 184.61 70.02 190.61 70.02 196.45 124.98 190.53 124.51 184.61" style="fill:#9a9fa9"/><polygon points="126.35 207.64 72.35 212.38 72.35 206.25 125.73 199.92 126.35 207.64" style="fill:#9a9fa9"/><polygon points="127.15 217.78 72.66 223.07 74.23 231.01 127.75 225.28 127.15 217.78" style="fill:#9a9fa9"/><polygon points="128.63 236.33 75.01 242.14 75.63 249.34 129.17 243.12 128.63 236.33" style="fill:#9a9fa9"/><polygon points="130.13 255.19 77.25 261.45 77.25 267.86 130.67 261.96 130.13 255.19" style="fill:#9a9fa9"/><polygon points="131.57 273.25 71.53 280.62 72.66 286.86 132.16 280.62 131.57 273.25" style="fill:#9a9fa9"/><polygon points="77.25 141.47 40.85 138.09 35.36 143.58 43.79 152.4 77.25 141.47" style="fill:#f9fafa"/><polygon points="35.36 143.58 77.25 141.47 87.2 303.06 52.67 314.45 35.36 143.58" style="fill:#dddfe2"/><polygon points="56.23 155.79 66.93 154.94 67.57 161.99 56.23 163.06 56.23 155.79" style="fill:#9a9fa9"/><polygon points="57.95 179.31 68.42 178.46 69.06 184.87 57.95 186.16 57.95 179.31" style="fill:#9a9fa9"/><polygon points="463.31 160.52 516 156.33 556.21 158.96 527.11 166.71 490.72 168.84 463.31 160.52" style="fill:#f9fafa"/><polygon points="463.31 160.52 507.63 164.8 527.11 166.71 523.91 297.57 463.72 291.78 463.31 160.52" style="fill:#dddfe2"/><polygon points="486.89 167.83 479.49 299.32 483.83 299.83 489.96 167.83 486.89 167.83" style="fill:#bbbfc6"/><polygon points="496.6 168.85 499.4 169.36 493.02 301.11 489.7 300.85 496.6 168.85" style="fill:#bbbfc6"/><polygon points="529.02 107.51 529.25 59.39 532.13 59.5 532.09 109.75 529.02 107.51" style="fill:#cccfd4"/><polygon points="509.49 136.36 529.02 107.51 564.79 106.87 549.96 149.51 509.49 136.36" style="fill:#f9fafa"/><polygon points="545.87 140.19 564.79 106.87 590.68 136.75 569.49 145.3 545.87 140.19" style="fill:#dddfe2"/><polygon points="509.49 136.36 545.87 140.19 559.4 297.98 499.15 294.15 509.49 136.36" style="fill:#cccfd4"/><polygon points="545.87 140.19 590.68 136.75 595.28 292.62 547.66 293.77 545.87 140.19" style="fill:#bbbfc6"/><polygon points="546.09 159.28 508.25 155.22 508.09 157.69 546.12 161.78 546.09 159.28" style="fill:#abafb8"/><polygon points="545.97 148.32 508.91 145.24 508.74 147.74 545.99 150.62 545.97 148.32" style="fill:#abafb8"/><polygon points="546.21 168.97 507.63 164.8 507.46 167.32 546.24 171.54 546.21 168.97" style="fill:#abafb8"/><polygon points="546.45 189.98 506.31 184.84 506.15 187.31 546.48 192.66 546.45 189.98" style="fill:#abafb8"/><polygon points="546.58 201.07 505.6 195.72 505.43 198.36 546.61 203.76 546.58 201.07" style="fill:#abafb8"/><polygon points="546.33 179.16 506.99 174.55 506.84 176.84 546.36 181.99 546.33 179.16" style="fill:#abafb8"/><polygon points="546.36 181.99 591.81 175.18 591.75 173.13 546.33 179.16 546.36 181.99" style="fill:#9a9fa9"/><polygon points="592.13 185.9 592.06 183.53 546.45 189.98 546.48 192.66 592.13 185.9" style="fill:#9a9fa9"/><polygon points="590.94 145.44 590.88 143.57 545.97 148.32 545.98 149.73 545.99 150.62 590.94 145.44" style="fill:#9a9fa9"/><polygon points="592.44 196.41 592.37 194.19 546.58 201.07 546.61 203.76 592.44 196.41" style="fill:#9a9fa9"/><polygon points="591.23 155.38 591.18 153.59 546.09 159.28 546.12 161.78 591.23 155.38" style="fill:#9a9fa9"/><polygon points="591.54 166.05 591.45 162.85 546.21 168.97 546.24 171.54 591.54 166.05" style="fill:#9a9fa9"/><polygon points="547.17 252.09 593.82 243.31 593.76 241.11 547.14 249.09 547.17 252.09" style="fill:#9a9fa9"/><polygon points="594.63 270.51 594.56 268.18 547.47 277.43 547.5 279.92 594.63 270.51" style="fill:#9a9fa9"/><polygon points="592.78 207.98 592.7 205.37 546.71 211.71 546.74 214.3 592.78 207.98" style="fill:#9a9fa9"/><polygon points="594.22 256.91 594.16 254.8 547.31 263.45 547.35 266.89 594.22 256.91" style="fill:#9a9fa9"/><polygon points="593.09 218.51 593.01 215.59 546.83 222.44 546.87 225.62 593.09 218.51" style="fill:#9a9fa9"/><polygon points="593.44 230.37 593.37 227.95 546.97 234.72 546.99 236.07 547.01 238.17 593.44 230.37" style="fill:#9a9fa9"/><polygon points="520.51 120.09 556.25 121.92 555.19 123.78 518.94 122.4 520.51 120.09" style="fill:#dddfe2"/><polygon points="556.25 121.92 576.53 120.42 578.46 122.64 555.19 123.78 556.25 121.92" style="fill:#cccfd4"/><polygon points="702.64 145.55 753.11 140.81 775.66 146.7 768.38 155.51 702.64 145.55" style="fill:#f9fafa"/><polygon points="753.7 148.62 702.64 145.55 698.3 316.62 732.69 310.56 746.37 305.06 753.7 148.62" style="fill:#dddfe2"/><polygon points="744.42 245.89 700.22 240.72 700.11 245.28 743.8 250.11 744.42 245.89" style="fill:#9a9fa9"/><polygon points="739.9 292.81 698.99 289.48 698.88 293.53 739.08 296.64 739.9 292.81" style="fill:#9a9fa9"/><polygon points="743.8 261.79 699.8 257.29 699.7 261.23 742.98 265.81 743.8 261.79" style="fill:#9a9fa9"/><polygon points="742.16 277.3 699.41 272.91 699.29 277.56 740.93 281.89 742.16 277.3" style="fill:#9a9fa9"/><polygon points="701.57 187.67 701.44 192.72 751 198.02 751.41 192.85 701.57 187.67" style="fill:#9a9fa9"/><polygon points="701.94 173.15 701.84 177.07 752.14 182 752.33 177.78 701.94 173.15" style="fill:#9a9fa9"/><polygon points="701.13 205.06 701.01 209.6 750.58 215.26 750.81 210.28 701.13 205.06" style="fill:#9a9fa9"/><polygon points="700.68 222.65 700.57 226.99 745.21 232.11 745.83 227.7 700.68 222.65" style="fill:#9a9fa9"/></g><circle cx="150.13" cy="75.85" r="24.51" style="fill:#fff"/><polygon points="322.6 34.87 329.36 47.26 322.6 274.28 312.38 273.38 308.75 206.47 311.49 29.13 322.6 34.87" style="fill:#abafb8"/><polygon points="277.14 47.26 279.69 275.63 289.43 274.12 292.69 243.97 294.33 35.64 287.38 35.64 277.14 47.26" style="fill:#abafb8"/><polygon points="319.15 41.87 329.36 47.26 769.02 28.55 766.47 11 329.36 33.98 319.15 41.87" style="fill:#9a9fa9"/><polygon points="28.09 27.34 277.14 47.26 287.96 42.38 281.06 32.85 28.09 9.84 28.09 27.34" style="fill:#9a9fa9"/><polygon points="779.49 0 793.66 4.62 779.49 307.4 756.45 312.66 752.3 236.39 772.98 9.47 779.49 0" style="fill:#9a9fa9"/><polygon points="15.83 0 0 5.11 15.83 308.36 40.85 312.66 33.7 179.54 15.83 0" style="fill:#9a9fa9"/><polygon points="15.83 0 40.85 312.66 60.95 310.26 32.17 16.85 287.96 42.38 289.43 274.12 300.82 272.35 307.59 108.65 304.85 25.53 15.83 0" style="fill:#bbbfc6"/><polygon points="304.85 25.53 779.49 0 756.45 312.66 732.69 310.56 759.57 18.89 319.15 41.87 312.38 273.38 300.82 272.35 304.85 25.53" style="fill:#cccfd4"/><polygon points="79.78 353.82 32.51 340.79 63.22 334.27 112.4 332.62 129.25 336.1 79.78 353.82" style="fill:#1d2432;opacity:0.1"/><polygon points="159.06 346.25 121.81 357.13 221.27 373.02 297.69 355.75 223.17 342.09 159.06 346.25" style="fill:#1d2432;opacity:0.1"/><polygon points="256.83 306.15 323.15 321.51 376.42 319.16 410.15 306.15 396.06 304.25 391.56 302.94 297.93 292.67 258.8 302.22 256.83 306.15" style="fill:#1d2432;opacity:0.1"/><polygon points="694.18 328.32 610.39 335.71 521.41 328.17 510 323.75 492.87 329.75 441.01 332.1 433.29 343.54 419 346.91 382.42 351.21 354.38 355.13 441.32 372.02 518.15 361.94 566.08 364.51 582.64 357.67 579.15 366.61 699.24 373.47 771.75 346.91 694.18 328.32" style="fill:#1d2432;opacity:0.1"/><polygon points="392.11 305.02 387.51 304.11 379.99 288.4 392.65 287.45 392.11 305.02" style="fill:#abafb8"/><polygon points="256.83 306.15 261.32 305.06 270.7 288.02 260.94 286.46 256.83 306.15" style="fill:#89909b"/><polygon points="344.01 314.04 348.75 313.04 351.19 296.88 388.25 290.45 392.11 305.02 396.06 304.25 395.68 277.37 344.23 290.06 341.87 298.11 344.01 314.04" style="fill:#89909b"/><polygon points="253.33 279.72 251.62 305.77 256.83 306.15 260.89 292.43 335.84 298.55 339.21 313.66 344.01 314.04 344.23 290.06 321.45 280.87 253.33 279.72" style="fill:#abafb8"/><polygon points="243.47 266.83 245.08 281 344.23 290.06 349.21 274.28 243.47 266.83" style="fill:#4298b4"/><polygon points="401.53 267.91 402.38 281.34 344.23 290.06 344.01 278.37 356.3 267.91 401.53 267.91" style="fill:#388199"/><polygon points="243.47 266.83 301.07 257.02 401.53 267.91 344.01 278.37 243.47 266.83" style="fill:#67acc3"/><polygon points="309.48 264.28 336.86 269.06 309.76 274.44 297.93 275.63 281.23 271.4 309.48 264.28" style="fill:#eeeff1;fill-rule:evenodd"/><polygon points="281.23 271.4 279.31 284.13 305.36 291.15 309.76 274.44 281.23 271.4" style="fill:#cccfd4;fill-rule:evenodd"/><polygon points="308.86 266.48 324.42 269 321.9 269.5 307.02 267.08 308.86 266.48" style="fill:#abafb8"/><polygon points="302.58 267.99 317.75 270.31 315.24 270.71 299.87 268.6 302.58 267.99" style="fill:#abafb8"/><polygon points="293.11 270.21 294.94 269.71 310.89 271.62 307.79 272.13 293.11 270.21" style="fill:#abafb8"/><polygon points="285.83 274.04 303.54 276.92 303.16 278.45 285.16 275.57 285.83 274.04" style="fill:#9a9fa9"/><polygon points="284.97 278.83 297.03 280.94 296.46 282.47 284.49 280.46 284.97 278.83" style="fill:#9a9fa9"/><polygon points="650.78 325.06 650.78 335.71 629.48 338.98 610.39 335.71 626.63 317.02 640.83 315.16 650.78 325.06" style="fill:#165e60"/><polygon points="704.33 327.52 713.18 340.38 698.85 343.64 681.15 340.38 682.41 332.86 691.97 321.44 704.33 327.52" style="fill:#165e60"/><polygon points="628.02 249.76 627.32 283.85 643.24 299.71 659.85 302.22 672.9 269.38 628.02 249.76" style="fill:#317186"/><polygon points="605.7 225.24 627.87 248.24 646.42 232.69 621.76 198.32 605.7 225.24" style="fill:#50a9aa"/><polygon points="620.31 171.39 605.7 225.24 624.42 213.22 639.73 206.14 620.31 171.39" style="fill:#72cbcc"/><polygon points="695.9 161.67 716.98 166.94 712.38 216.27 697.53 243.06 635.22 236.76 624.42 213.22 620.31 171.39 695.9 161.67" style="fill:#50a9aa"/><polygon points="667.62 183.29 646.42 189.12 650.41 175.22 660.13 173.01 695.9 161.67 686.63 190.54 667.62 183.29" style="fill:#94d5d5"/><polygon points="666.5 73.12 638.55 83.74 615.8 74.53 620.31 171.39 650.41 173.01 678.41 170.1 682.98 155.67 697.53 135.38 704.46 118.68 689.77 109.27 682.18 127.77 674.42 123.47 692.79 82.92 666.5 73.12" style="fill:#dfbda5"/><polygon points="666.5 73.12 669.27 170.1 663.24 175.79 676.33 176.63 695.9 161.67 697.52 135.43 687.66 131.71 682.98 129.48 673.51 124.77 691.27 82.23 666.5 73.12" style="fill:#c3987b"/><polygon points="689.38 127.38 692.39 118.6 698.98 121.14 689.38 127.38" style="fill:#8b6651"/><polygon points="697.53 135.38 682.98 129.48 696.91 145.23 697.53 135.38" style="fill:#8b6651"/><polygon points="635.22 129.82 640.48 134.15 645.03 129.5 635.22 129.82" style="fill:#8b6651"/><polygon points="657.25 105.42 649.54 108.76 645.03 129.5 642.49 113.33 644.34 101.8 657.25 105.42" style="fill:#c3987b"/><polygon points="634.43 102.27 638.3 112.17 634.97 121.31 628.36 107.44 621.76 104.73 634.43 102.27" style="fill:#c3987b"/><polygon points="669.27 170.1 676.33 176.63 667.62 183.29 650.41 175.22 620.31 171.39 669.27 170.1" style="fill:#8b6651"/><polygon points="634.37 98.49 621.61 100.49 621.76 104.73 634.43 102.27 634.37 98.49" style="fill:#474747"/><polygon points="644.22 98.01 657.79 101.26 657.25 105.42 644.34 101.8 644.22 98.01" style="fill:#474747"/><polygon points="662.83 138.44 623.33 139.85 640.83 150.81 662.83 138.44" style="fill:#8b6651"/><polygon points="652.68 141.17 631.39 141.86 641.01 147.83 652.68 141.17" style="fill:#fff"/><polygon points="656.54 52.59 685.36 63.64 675.76 71.81 666.5 73.12 638.03 86.42 644.6 69.23 656.54 52.59" style="fill:#474747"/><polygon points="685.36 63.64 708.84 73.44 697.43 81.33 689.44 83.27 666.5 73.12 685.36 63.64" style="fill:#6f7173"/><polygon points="708.84 73.44 704.46 118.68 689.96 112.41 682.98 129.48 672.16 125.06 689.44 83.27 708.84 73.44" style="fill:#474747"/><polygon points="638.03 86.42 656.54 52.59 615.8 74.53 638.03 86.42" style="fill:#8f8f8f"/><path d="M632,122.42a3,3,0,0,1,2.15,3.8,3.09,3.09,0,1,1-5.95-1.64A3,3,0,0,1,632,122.42Z" transform="translate(-2.87 -14.38)" style="fill:#2b2b2b"/><path d="M655,122.48a3.12,3.12,0,0,1,2.2,3.87,3.12,3.12,0,1,1-6-1.66A3.1,3.1,0,0,1,655,122.48Z" transform="translate(-2.87 -14.38)" style="fill:#2b2b2b"/><polygon points="644.34 101.8 634.43 102.27 635.22 129.82 645.03 129.5 644.34 101.8" style="fill:#e8cab6"/><polygon points="624.42 213.22 638.37 213.7 653.55 219.2 674.28 214.95 712.38 216.27 709.92 242.76 705.3 250.83 665.55 257.84 632.4 244.49 626.97 239.12 624.42 213.22" style="fill:#359496"/><polygon points="716.98 166.94 737.37 238.22 709.39 232.06 707.44 216.1 716.98 166.94" style="fill:#72cbcc"/><polygon points="663.1 192.21 666.65 189.49 670.87 193.17 665.97 196.71 663.1 192.21" style="fill:#1e7678"/><polygon points="662.69 204.59 666.92 201.73 670.87 205.41 665.42 209.23 662.69 204.59" style="fill:#1e7678"/><polygon points="628.02 249.76 661.97 274.7 688.6 276.34 708.84 254.37 665.27 246.75 628.02 249.76" style="fill:#2a6275"/><polygon points="709.92 242.76 708.84 254.37 628.02 249.76 626.97 239.12 709.92 242.76" style="fill:#1e7678"/><polygon points="708.84 254.37 702.08 268.38 707.5 275.99 706.27 296.03 692.53 308.7 673.55 307.63 661.97 274.7 708.84 254.37" style="fill:#3b88a1"/><polygon points="673.55 307.63 706.28 296.03 704.33 327.52 682.41 332.86 673.55 307.63" style="fill:#317186"/><polygon points="659.85 302.22 627.32 283.85 626.63 317.02 650.78 325.06 659.85 302.22" style="fill:#2a6275"/><rect x="681.15" y="340.38" width="32.03" height="6.53" style="fill:#369496"/><rect x="610.39" y="335.71" width="40.4" height="6.53" style="fill:#369496"/><polygon points="695.9 253.98 692.95 244.49 681.76 225.54 674.28 214.95 643.53 224.04 654.1 240.31 658.52 257.84 695.9 253.98" style="fill:#b8c744"/><polygon points="707.44 216.1 691.66 225.98 691.05 235.53 697.91 243.97 737.37 238.22 707.44 216.1" style="fill:#50a9aa"/><polygon points="691.66 225.98 697.91 243.97 692.86 244.6 683.47 235.86 681.76 225.54 691.66 225.98" style="fill:#dfbda5"/><polygon points="681.76 225.54 666.5 231 677.36 245.69 692.86 244.6 681.76 225.54" style="fill:#c3987b"/><polygon points="674.28 214.95 671.33 237.53 634.19 230.03 638.37 213.7 674.28 214.95" style="fill:#e6e97c"/><polygon points="506.23 331.79 521.41 328.17 532.93 293.65 503.25 291.03 506.23 331.79" style="fill:#576071"/><polygon points="488.27 300.83 492.87 329.75 506.23 331.79 510 290.15 488.27 300.83" style="fill:#68707f"/><polygon points="664.24 350.46 649.87 347.85 643.08 317.4 672.9 314.45 664.24 350.46" style="fill:#545c6d"/><polygon points="579.15 366.61 595.85 362.7 604.86 330.71 661.97 324.65 664.24 350.46 683.32 346.91 691.05 270.42 585.47 286.46 577.32 311.79 579.15 366.61" style="fill:#68707f"/><polygon points="604.53 278.63 602.33 308.28 668.64 302.33 674.28 272.97 604.53 278.63" style="fill:#51596a"/><polygon points="433.29 343.54 448.32 340.01 466.53 296.03 434.52 296.9 433.29 343.54" style="fill:#68707f"/><polygon points="585.47 286.46 579.15 366.61 566.08 364.51 557.4 318.62 441.7 307.23 433.29 343.54 421.02 341.01 425.52 266.41 551.47 278.35 585.47 286.46" style="fill:#89909b"/><polygon points="560.75 278.63 558.92 302.33 449.41 291.03 454.39 266.41 560.75 278.63" style="fill:#5f6878"/><polygon points="600.65 267.95 585.47 286.46 414.96 268.94 416.46 255.12 600.65 267.95" style="fill:#86b264"/><polygon points="585.47 286.46 707.5 275.99 708.84 254.37 619.19 256.73 586.74 273.89 585.47 286.46" style="fill:#709d52"/><polygon points="708.84 254.37 513.36 239.57 416.46 255.12 586.74 273.89 708.84 254.37" style="fill:#c0db8e"/><polygon points="604.02 240.42 538.97 236.39 528.85 249.4 563.98 253.34 604.02 240.42" style="fill:#47ad82"/><polygon points="579.29 241.26 537.14 239.57 529.84 241.68 544.64 245.12 579.29 241.26" style="fill:#99d1b9"/><polygon points="557.37 246.79 560.75 251.09 555.69 258.38 482.06 252.58 479.6 240.42 557.37 246.79" style="fill:#1e6245"/><polygon points="546.65 186.92 478.65 176.57 467.74 187.31 536.03 198.32 546.65 186.92" style="fill:#33a474"/><polygon points="534.61 192.23 546.65 186.92 557.37 246.79 547.82 248.77 537.99 226.7 534.61 192.23" style="fill:#28835c"/><polygon points="501.63 189.12 534.61 192.23 547.82 248.77 519.44 247.06 477.48 243.97 467.74 187.31 501.63 189.12" style="fill:#237250"/><polygon points="557.37 246.79 604.02 240.42 603.71 250.86 555.69 258.38 557.37 246.79" style="fill:#28835c"/><polygon points="54.21 288.46 80.27 280.62 98.25 281.74 121.08 289.57 85.82 302.94 54.21 288.46" style="fill:#1e7678"/><polygon points="59.68 196.97 92.82 210.58 90.03 238.58 82.31 237.9 59.68 196.97" style="fill:#84c8ab"/><polygon points="75.01 237.27 57.81 229.51 59.68 196.97 85.09 235.79 75.01 237.27" style="fill:#5bb68f"/><polygon points="124.81 208.56 75.01 237.27 77.81 247.1 82.31 254.13 109.21 252.34 124.81 208.56" style="fill:#33a474"/><polygon points="118 251.74 124.81 208.56 105.04 242.47 91.29 263.65 109.63 268.6 118 251.74" style="fill:#5bb68f"/><polygon points="66.93 257.98 37.88 275.58 70.97 279.02 66.93 257.98" style="fill:#3da87b"/><polygon points="37.88 275.58 63.25 251.91 67.46 265.53 37.88 275.58" style="fill:#2b8b62"/><polygon points="105.04 242.47 96.78 268.6 85.09 266.07 105.04 242.47" style="fill:#309b6e"/><polygon points="81.46 299.37 79.78 277.07 90.74 274.35 96.78 279.28 92 298.95 81.46 299.37" style="fill:#309b6e"/><polygon points="93.06 276.68 88.91 299.37 86.52 299.17 90.74 274.35 93.06 276.68" style="fill:#28835c"/><polygon points="86.52 275.4 86.52 299.17 84.98 299.23 83.66 276.11 86.52 275.4" style="fill:#28835c"/><polygon points="63.22 334.27 87.93 338.71 92.7 311.73 86.52 295.68 58.55 310.54 63.22 334.27" style="fill:#359496"/><polygon points="86.52 295.68 117.14 309.11 112.4 332.62 87.93 338.71 86.52 295.68" style="fill:#4fa9aa"/><polygon points="121.08 289.57 117.14 309.11 87.2 316.55 81.46 301.33 86.52 295.68 121.08 289.57" style="fill:#f4d75c"/><polygon points="86.52 295.68 54.21 288.46 58.55 310.54 87.2 316.55 86.52 295.68" style="fill:#ccae2d"/><polygon points="86.52 269.02 98.8 262.21 118 251.74 134.01 303.85 89.79 277.8 86.52 269.02" style="fill:#33a474"/><polygon points="98.8 262.21 134.01 303.85 79.78 277.07 77.25 262.98 98.8 262.21" style="fill:#5bb68f"/><polygon points="54.07 240.14 77.81 247.1 82.31 254.13 75.01 288.71 54.07 240.14" style="fill:#5bb68f"/><polygon points="77.81 247.1 105.04 242.47 75.01 288.71 77.81 247.1" style="fill:#84c8ab"/><polygon points="326.03 176.74 342.68 180.11 323.51 243.79 274.82 226.16 291.79 183.99 326.03 176.74" style="fill:#aa822b;fill-rule:evenodd"/><polygon points="182.35 346.15 162.51 353.92 159.06 346.25 161.85 333.45 167.98 331.16 177.11 334.04 182.35 346.15" style="fill:#4f5253;fill-rule:evenodd"/><polygon points="246.68 335.89 238.84 350.11 223.17 342.09 222.09 333.24 236.04 326.76 246.68 335.89" style="fill:#4f5253;fill-rule:evenodd"/><polygon points="237.46 327.97 223.17 342.09 222.09 333.24 226.65 328.32 237.46 327.97" style="fill-rule:evenodd;opacity:0.2"/><polygon points="161.85 333.45 169.87 331.16 177.11 334.04 160.19 341.05 161.85 333.45" style="fill-rule:evenodd;opacity:0.2"/><polygon points="236.55 347.82 223.17 342.09 224.36 352.78 263.76 353.13 263.53 341.62 246.68 335.89 236.55 347.82" style="fill:#6f7173;fill-rule:evenodd"/><polygon points="190.19 358.17 189.97 345.78 171.68 343.86 163.78 351.92 159.06 346.25 158.53 358.17 190.19 358.17" style="fill:#6f7173;fill-rule:evenodd"/><polygon points="234.66 257.24 246.48 313.04 230.92 325.2 217.85 323.75 217.62 303.04 204.71 294.64 188.8 323.75 177.11 331.16 157.9 322.3 155.89 266.53 165.96 239.06 234.66 257.24" style="fill:#54b08b;fill-rule:evenodd"/><polygon points="229.31 261.45 242.09 316.38 234.77 320.1 219.85 271.62 229.31 261.45" style="fill:#3f8f6f;fill-rule:evenodd"/><polygon points="215.78 284.31 226.91 322.88 217.85 323.75 204.71 294.64 206.19 271.4 215.78 284.31" style="fill:#3f8f6f;fill-rule:evenodd"/><polygon points="194.01 286.15 181.85 325.24 174.21 324.45 184.9 267.86 194.01 286.15" style="fill:#3f8f6f;fill-rule:evenodd"/><polygon points="176.78 261.96 168.35 325.5 161.7 322.66 161.93 275.09 167.66 264.09 176.78 261.96" style="fill:#3f8f6f;fill-rule:evenodd"/><polygon points="246.48 313.04 217.85 323.75 222.09 333.24 249.01 324.02 246.48 313.04" style="fill:#35785d;fill-rule:evenodd"/><polygon points="188.8 323.75 157.9 322.3 157.86 333.24 182.2 334.34 188.8 323.75" style="fill:#35785d;fill-rule:evenodd"/><polygon points="215.78 284.31 204.71 294.64 194.01 286.15 206.19 266.06 215.78 284.31" style="fill:#35785d;fill-rule:evenodd"/><polygon points="269.52 193.71 281.93 187.59 294.33 189.46 306.36 193.16 299.82 202.42 279.61 203.13 269.52 193.71" style="fill:#c3987b;fill-rule:evenodd"/><polygon points="225.18 185.67 235.96 219.45 234.66 257.24 215.78 284.31 206.19 271.4 194.01 286.15 171.96 255.19 155.66 252.64 158.61 221.47 176.78 174.37 225.18 185.67" style="fill:#738d57;fill-rule:evenodd"/><polygon points="208.4 218.29 195.12 254.44 206.19 262.92 217.99 254.81 208.4 218.29" style="fill:#4f5253;fill-rule:evenodd"/><polygon points="217.99 254.81 195.12 254.44 206.19 271.4 217.99 254.81" style="fill:#474747;fill-rule:evenodd"/><polygon points="220.04 205.45 208.4 218.29 197.37 203.82 210.4 202.85 220.04 205.45" style="fill:#474747;fill-rule:evenodd"/><polygon points="165.24 215.24 165.24 192.19 156.27 180.22 134.08 231.01 149.66 230.22 158.61 225.28 165.24 215.24" style="fill:#5a753d;fill-rule:evenodd"/><polygon points="233.11 183.99 249.34 198.06 245.85 207.84 235.96 219.45 227.66 202.85 233.11 183.99" style="fill:#3f8f6f;fill-rule:evenodd"/><polygon points="249.34 198.06 270.7 215.39 266.83 223.44 241.66 223.75 235.96 219.45 249.34 198.06" style="fill:#99c26d;fill-rule:evenodd"/><polygon points="241.66 223.75 269.51 193.36 273.88 194.02 275.72 198.06 287.38 206.89 262.62 231.39 241.66 223.75" style="fill:#738d57;fill-rule:evenodd"/><polygon points="210.4 202.85 198.13 181.6 176.78 174.37 178.78 216.74 210.4 202.85" style="fill:#99c26d;fill-rule:evenodd"/><polygon points="233.11 183.99 214.14 188.01 210.4 202.85 235.96 219.45 233.11 183.99" style="fill:#99c26d;fill-rule:evenodd"/><polygon points="176.78 174.37 156.27 180.22 165.24 215.24 176.78 174.37" style="fill:#3f8f6f;fill-rule:evenodd"/><polygon points="226.23 166.94 215.63 178.41 218.3 196.45 233.11 183.99 226.23 166.94" style="fill:#5a753d;fill-rule:evenodd"/><polygon points="180.96 155.79 176.78 174.37 196.22 190.75 192.15 173.49 180.96 155.79" style="fill:#5a753d;fill-rule:evenodd"/><polygon points="154.03 165.34 180.96 155.79 181.28 147.58 175.17 139.46 165.13 148.14 154.03 165.34" style="fill:#35785d;fill-rule:evenodd"/><polygon points="264.03 94.54 256.07 120.77 256.93 152.06 263.78 145.42 270.5 142.71 277.14 138.14 270.31 99.63 268.76 94.87 264.03 94.54" style="fill:#3f8f6f;fill-rule:evenodd"/><polygon points="260.01 119.42 270.5 142.71 256.93 152.06 257.6 142.29 262.3 138.94 259.38 132.23 260.01 119.42" style="fill:#99c26d;fill-rule:evenodd"/><polygon points="264.03 94.54 255.02 167.52 226.23 166.94 215.18 191.37 209.99 195.25 202.29 184.66 175.17 139.46 206.71 100.82 242.34 76.94 264.03 94.54" style="fill:#dfbda5;fill-rule:evenodd"/><polygon points="235.49 81.53 264.22 94.69 252.85 81.76 241.89 73.92 235.82 76.66 235.49 81.53" style="fill:#8b6651;fill-rule:evenodd"/><polygon points="235.77 131.17 227.69 110.06 220.4 99.95 234.93 97.42 236.29 103.94 235.77 131.17" style="fill:#c3987b;fill-rule:evenodd"/><polygon points="242.67 104.16 245.47 98.1 258.8 102.46 242.11 122.33 242.67 104.16" style="fill:#c3987b;fill-rule:evenodd"/><polygon points="241.82 131.42 238.52 135.53 235.77 131.17 241.82 131.42" style="fill:#8b6651;fill-rule:evenodd"/><polygon points="206.71 100.82 202.63 165.51 215.44 173.39 222.26 181.7 218.3 196.45 210.4 202.85 196.22 190.75 180.96 155.79 181.28 147.58 175.17 139.46 206.71 100.82" style="fill:#c3987b;fill-rule:evenodd"/><polygon points="242.67 104.16 241.82 131.42 235.77 131.17 236.29 103.94 242.67 104.16" style="fill:#e8cab6;fill-rule:evenodd"/><polygon points="206.71 100.82 196.62 124.71 184.65 135.12 199.27 138.5 180.96 155.79 175.17 139.46 186.32 123 206.71 100.82" style="fill:#8b6651;fill-rule:evenodd"/><polygon points="245.47 98.1 253.65 95.39 258.8 102.46 245.47 98.1" style="fill:#3f8f6f;fill-rule:evenodd"/><polygon points="234.93 97.42 228.14 94.33 220.4 99.95 234.93 97.42" style="fill:#3f8f6f;fill-rule:evenodd"/><polygon points="254.08 144.17 237.43 158.17 217.69 143.17 254.08 144.17" style="fill:#738d57;fill-rule:evenodd"/><polygon points="194.82 115.38 199.27 138.5 170.22 145.51 176.29 136.38 192.15 133.22 189.19 120.58 194.82 115.38" style="fill:#99c26d;fill-rule:evenodd"/><polygon points="226.23 166.94 192.18 164.88 222.26 181.7 226.23 166.94" style="fill:#8b6651;fill-rule:evenodd"/><polygon points="206.71 100.82 166.69 121.65 140.94 144.92 154.03 165.34 206.71 100.82" style="fill:#3f8f6f;fill-rule:evenodd"/><polygon points="203.03 93.48 172.44 65.68 133.57 112.83 203.03 93.48" style="fill:#3f8f6f;fill-rule:evenodd"/><polygon points="133.57 112.83 117.56 133.1 140.94 144.92 139.87 125.62 133.57 112.83" style="fill:#3f8f6f;fill-rule:evenodd"/><polygon points="242.34 76.94 241.39 70.53 230.86 57.39 172.44 65.68 195.41 92.42 242.34 76.94" style="fill:#72c9a6;fill-rule:evenodd"/><polygon points="242.34 76.94 270.31 99.63 281.06 81.63 230.86 57.39 242.34 76.94" style="fill:#54b08b;fill-rule:evenodd"/><polygon points="242.34 76.94 140.94 144.92 133.57 112.83 242.34 76.94" style="fill:#54b08b;fill-rule:evenodd"/><polygon points="171.96 255.19 176.78 261.96 161.93 275.09 155.89 266.53 159.5 256.68 171.96 255.19" style="fill:#dfbda5;fill-rule:evenodd"/><polygon points="134.08 231.01 151.6 269.56 171.96 255.19 158.61 225.28 134.08 231.01" style="fill:#99c26d;fill-rule:evenodd"/><path d="M258.38,127.77a3.81,3.81,0,1,1-4.33-3.22A3.81,3.81,0,0,1,258.38,127.77Z" transform="translate(-2.87 -14.38)" style="fill:#2b2b2b;fill-rule:evenodd"/><path d="M233.13,125.92a3.82,3.82,0,1,1-4.33-3.21A3.81,3.81,0,0,1,233.13,125.92Z" transform="translate(-2.87 -14.38)" style="fill:#2b2b2b;fill-rule:evenodd"/><polygon points="244 149.27 237.6 154.3 230.19 149 237.65 147.65 244 149.27" style="fill:#446125;fill-rule:evenodd"/><polygon points="250.09 144.39 238.35 144.71 221.99 143.58 230.19 149 244 149.27 250.09 144.39" style="fill:#fff;fill-rule:evenodd"/><polygon points="254.08 144.17 238.33 141.47 217.69 143.17 238.02 146.32 254.08 144.17" style="fill:#446125;fill-rule:evenodd"/><polygon points="291.05 168.84 311.49 170.73 337.84 174.37 323.14 235.64 274.82 226.16 281.41 193.37 291.05 168.84" style="fill:#f4d75c;fill-rule:evenodd"/><polygon points="311.49 170.73 287.38 188.85 283.07 185.01 287.94 160.83 311.49 170.73" style="fill:#e4c824;fill-rule:evenodd"/><polygon points="283.21 191.85 290.57 195.25 294.33 189.46 278.41 183.17 269.51 193.36 275.72 198.06 283.21 191.85" style="fill:#dfbda5;fill-rule:evenodd"/><polygon points="306.36 178.85 314.97 180 308.96 193.36 304.33 192.12 306.36 178.85" style="fill:#96637c;fill-rule:evenodd"/><polygon points="303.27 196.45 307.59 197.5 306.36 202.24 301.8 200.45 303.27 196.45" style="fill:#96637c;fill-rule:evenodd"/><polygon points="292.69 207.93 313.92 211.9 312.74 214.25 292.69 210 292.69 207.93" style="fill:#c29431;fill-rule:evenodd"/><polygon points="292.06 213.74 312.16 218.08 311.67 220.25 291.42 216.09 292.06 213.74" style="fill:#c29431;fill-rule:evenodd"/><polygon points="290.96 219.46 300.2 221.33 299.86 223.07 290.62 221.41 290.96 219.46" style="fill:#c29431;fill-rule:evenodd"/><polygon points="443.01 306.27 433.09 321.44 417.13 317.52 404.94 308.28 413.29 260.62 437.78 293.65 443.01 306.27" style="fill:#785d88;fill-rule:evenodd"/><polygon points="433.09 321.44 421.02 341.01 403.65 336.96 400.53 332.65 404.94 308.28 433.09 321.44" style="fill:#594165;fill-rule:evenodd"/><polygon points="477.48 259.03 413.29 260.62 436.17 293.65 453.36 284.96 477.48 259.03" style="fill:#9075a0;fill-rule:evenodd"/><polygon points="436.17 293.65 445.88 317.52 462.71 324.02 477.48 318.29 478.65 286.46 477.75 273.61 473.44 261.31 436.17 293.65" style="fill:#a688ba;fill-rule:evenodd"/><polygon points="445.88 317.52 454.56 339.01 464.83 343.9 477.05 343.06 477.48 318.29 445.88 317.52" style="fill:#785d88;fill-rule:evenodd"/><polygon points="454.56 339.01 450.37 355.13 464.93 356.69 479.46 355.13 477.05 343.06 454.56 339.01" style="fill:#96637c;fill-rule:evenodd"/><polygon points="400.53 332.65 382.42 351.21 405.42 352.76 421.02 351.21 421.02 341.01 400.53 332.65" style="fill:#96637c;fill-rule:evenodd"/><rect x="450.37" y="355.13" width="29.09" height="5.07" style="fill:#543042"/><rect x="382.42" y="351.21" width="38.6" height="5.07" style="fill:#543042"/><polygon points="478.65 176.57 443.23 213.22 433.35 174.94 456.77 171.24 478.65 176.57" style="fill:#fefefe;fill-rule:evenodd"/><polygon points="434.17 86.48 425.81 77.45 416.31 75.66 402.52 151.4 427.47 157.75 459.06 160.49 471.58 108.31 474.47 84.05 453.91 81.56 434.17 86.48" style="fill:#dfbda5;fill-rule:evenodd"/><polygon points="439.31 163.17 402.52 151.4 457.16 161.34 468.26 105.96 474.47 84.05 486.64 98.92 483.2 110.47 474.74 124.62 478.55 125.64 480.69 129.76 485.19 126.53 488.81 118.67 492.84 124.86 497.74 127.6 490.48 133.58 487.19 140.85 485.09 145.43 484 154.61 478.8 177.1 433.35 174.94 439.31 163.17" style="fill:#c3987b;fill-rule:evenodd"/><polygon points="412.3 97.68 408.74 71.33 422.24 73.52 412.3 97.68" style="fill:#474747;fill-rule:evenodd"/><polygon points="409.21 182.82 401.3 206.47 403.62 228.41 418.21 238.58 419 203.05 409.21 182.82" style="fill:#b3889d;fill-rule:evenodd"/><polygon points="406.62 224.27 403.62 228.41 386.9 230.39 390.13 247.45 415.87 248.77 417.56 229.75 406.62 224.27" style="fill:#96637c;fill-rule:evenodd"/><polygon points="407.29 226.7 408.24 235.6 396.42 246.79 386.9 230.39 395.72 229.08 407.29 226.7" style="fill:#734d60;fill-rule:evenodd"/><polygon points="398.22 219.16 402.57 214.48 386.67 193.88 382.73 197.58 389.18 208.64 391.8 216.66 398.22 219.16" style="fill:#c3987b;fill-rule:evenodd"/><polygon points="398.22 215.27 385.18 228.68 394.56 238.02 401.66 231.71 398.22 215.27" style="fill:#c3987b;fill-rule:evenodd"/><polygon points="401.3 206.47 405.57 206.62 407.29 226.7 401.66 231.71 398.22 219.16 401.3 206.47" style="fill:#dfbda5;fill-rule:evenodd"/><polygon points="398.22 219.16 389.18 208.64 379.99 223.81 386.9 230.39 398.22 219.16" style="fill:#e8cab6;fill-rule:evenodd"/><polygon points="459.12 101.64 445.15 111.33 435.52 128.14 436.67 112.5 439.31 104.06 442.62 99.64 451.71 96.83 459.12 101.64" style="fill:#c3987b;fill-rule:evenodd"/><polygon points="429.03 97.03 431.46 102.98 431.83 109.16 428.71 116.72 414.96 94.33 424.63 91.23 429.03 97.03" style="fill:#c3987b;fill-rule:evenodd"/><polygon points="431.46 93.78 421.45 89.22 414.96 94.33 418.75 97.3 423.21 94.36 429.03 97.03 431.46 93.78" style="fill:#474747;fill-rule:evenodd"/><polygon points="442.18 95.89 453.56 95.15 459.12 101.64 454.71 103.58 450.57 99.69 442.62 99.64 442.18 95.89" style="fill:#474747;fill-rule:evenodd"/><polygon points="431.46 102.98 426.86 125.98 430.53 128.46 435.52 128.14 439.31 104.06 431.46 102.98" style="fill:#e8cab6;fill-rule:evenodd"/><polygon points="480.69 129.76 478.8 134.09 487.19 140.85 497.74 127.6 488.81 118.67 480.69 129.76" style="fill:#dfbda5;fill-rule:evenodd"/><polygon points="434.17 86.48 408.74 71.33 435.79 54.29 437.89 71.94 434.17 86.48" style="fill:#6f7173;fill-rule:evenodd"/><polygon points="434.17 86.48 435.79 54.29 506.12 80.8 490.95 85.44 474.47 84.05 434.17 86.48" style="fill:#8f8f8f;fill-rule:evenodd"/><polygon points="506.12 80.8 508.83 121.92 496.55 111.56 486.64 98.92 474.47 84.05 506.12 80.8" style="fill:#6f7173;fill-rule:evenodd"/><polygon points="486.64 98.92 474.74 124.62 480.69 129.76 488.81 118.67 497.74 127.6 508.83 121.92 486.64 98.92" style="fill:#474747;fill-rule:evenodd"/><polygon points="492.87 128.14 489.62 124.89 485.56 131.66 492.87 128.14" style="fill:#8b6651;fill-rule:evenodd"/><polygon points="487.19 140.85 481.24 135.99 483.9 155.04 487.19 140.85" style="fill:#8b6651;fill-rule:evenodd"/><polygon points="426.86 125.98 430.65 132.2 435.52 128.14 426.86 125.98" style="fill:#8b6651;fill-rule:evenodd"/><polygon points="478.65 176.57 445.26 201.44 464.47 216.71 488.13 231.28 496.17 212.93 501.63 189.12 478.65 176.57" style="fill:#96637c;fill-rule:evenodd"/><polygon points="433.35 174.94 409.21 182.82 416.57 207.31 430.14 210.22 445.26 201.44 433.35 174.94" style="fill:#96637c;fill-rule:evenodd"/><polygon points="488.13 231.28 481.56 254.34 473.44 261.31 438.66 264.87 438.49 230.39 445.26 201.44 488.13 231.28" style="fill:#734d60;fill-rule:evenodd"/><polygon points="445.26 201.44 416.57 207.31 413.29 260.62 438.66 264.87 445.26 201.44" style="fill:#543042;fill-rule:evenodd"/><path d="M421.83,119.76a3.28,3.28,0,1,0,3.28-3.28A3.28,3.28,0,0,0,421.83,119.76Z" transform="translate(-2.87 -14.38)" style="fill:#2b2b2b"/><path d="M448,125.19a3.28,3.28,0,1,0,3.28-3.28A3.28,3.28,0,0,0,448,125.19Z" transform="translate(-2.87 -14.38)" style="fill:#2b2b2b"/><polygon points="466.53 161 402.52 151.4 433.35 164.93 433.35 174.94 466.53 161" style="fill:#8b6651;fill-rule:evenodd"/><polygon points="503.79 232.69 491.7 236.75 473.44 261.31 479.46 272.87 485.76 276.05 506.23 258.38 503.79 232.69" style="fill:#96637c;fill-rule:evenodd"/><polygon points="478.65 286.46 485.76 276.05 473.44 261.31 478.65 286.46" style="fill:#dfbda5;fill-rule:evenodd"/><polygon points="501.63 189.12 519.44 247.06 506.23 258.38 488.13 231.28 501.63 189.12" style="fill:#b3889d;fill-rule:evenodd"/><polygon points="419 134.63 441.33 138 436.69 146.92 420.81 144.11 419 134.63" style="fill:#8b6651;fill-rule:evenodd"/><polygon points="421.75 137.14 437.89 139.86 436.8 142.2 422.24 139.86 421.75 137.14" style="fill:#fff"/></svg>